<svg xmlns="http://www.w3.org/2000/svg" viewBox="0 0 427.91 486.54"><title>6icon-load</title><g id="Слой_2" data-name="Слой 2"><g id="Layer_1" data-name="Layer 1"><path d="M336.38,0,322.46,13.92l67.76,67.76H102.83A98.86,98.86,0,0,0,4.08,180.43v61.39H23.77V180.43a79.14,79.14,0,0,1,79.06-79.05H390.22l-67.76,67.76,13.92,13.92,91.53-91.53Z"/><path d="M404.14,244.72v61.39a79.14,79.14,0,0,1-79.05,79.05H37.69l67.76-67.76L91.53,303.48,0,395l91.53,91.53,13.92-13.92L37.69,404.86h287.4a98.86,98.86,0,0,0,98.75-98.75V244.72Z"/></g></g></svg>