<svg xmlns="http://www.w3.org/2000/svg" viewBox="0 0 512 480"><title>Ресурс 1</title><g id="Слой_2" data-name="Слой 2"><g id="Capa_1" data-name="Capa 1"><path d="M498.33,143.83A16,16,0,0,0,512,128V2.72A2.72,2.72,0,0,0,509.28,0H456a8,8,0,0,0-7.72,5.88A2.77,2.77,0,0,1,445.63,8H66.37a2.77,2.77,0,0,1-2.65-2.12A8,8,0,0,0,56,0H2.72A2.72,2.72,0,0,0,0,2.72V128a16,16,0,0,0,13.67,15.83A2.72,2.72,0,0,1,16,146.52V397.28A2.72,2.72,0,0,1,13.28,400H2.72A2.72,2.72,0,0,0,0,402.72v74.56A2.72,2.72,0,0,0,2.72,480H509.28a2.72,2.72,0,0,0,2.72-2.72V402.72a2.72,2.72,0,0,0-2.72-2.72H498.72a2.72,2.72,0,0,1-2.72-2.72V146.52A2.72,2.72,0,0,1,498.33,143.83ZM464,384V146.72a2.72,2.72,0,0,1,2.72-2.72h10.56a2.72,2.72,0,0,1,2.72,2.72V397.28a2.72,2.72,0,0,1-2.72,2.72H466.72a2.72,2.72,0,0,1-2.72-2.72ZM64,136V114.72A2.72,2.72,0,0,1,66.72,112H269.28a2.72,2.72,0,0,0,2.72-2.72V98.72A2.72,2.72,0,0,0,269.28,96H66.72A2.72,2.72,0,0,1,64,93.28V82.72A2.72,2.72,0,0,1,66.72,80H269.28A2.72,2.72,0,0,0,272,77.28V66.72A2.72,2.72,0,0,0,269.28,64H258.72A2.72,2.72,0,0,1,256,61.28V42.72A2.72,2.72,0,0,0,253.28,40H242.72A2.72,2.72,0,0,0,240,42.72V61.28A2.72,2.72,0,0,1,237.28,64H210.72A2.72,2.72,0,0,1,208,61.28V50.72A2.72,2.72,0,0,0,205.28,48H194.72A2.72,2.72,0,0,0,192,50.72V61.28A2.72,2.72,0,0,1,189.28,64H162.72A2.72,2.72,0,0,1,160,61.28V42.72A2.72,2.72,0,0,0,157.28,40H146.72A2.72,2.72,0,0,0,144,42.72V61.28A2.72,2.72,0,0,1,141.28,64H114.72A2.72,2.72,0,0,1,112,61.28V50.72A2.72,2.72,0,0,0,109.28,48H98.72A2.72,2.72,0,0,0,96,50.72V61.28A2.72,2.72,0,0,1,93.28,64H66.72A2.72,2.72,0,0,1,64,61.28V26.72A2.72,2.72,0,0,1,66.72,24H445.28A2.72,2.72,0,0,1,448,26.72V61.28A2.72,2.72,0,0,1,445.28,64H434.72A2.72,2.72,0,0,0,432,66.72V77.28A2.72,2.72,0,0,0,434.72,80h10.56A2.72,2.72,0,0,1,448,82.72V93.28A2.72,2.72,0,0,1,445.28,96H434.72A2.72,2.72,0,0,0,432,98.72v10.56a2.72,2.72,0,0,0,2.72,2.72h10.56a2.72,2.72,0,0,1,2.72,2.72V373.28a2.72,2.72,0,0,1-2.72,2.72H346.72a2.72,2.72,0,0,1-2.72-2.72V346.72a2.72,2.72,0,0,0-2.72-2.72H170.72a2.72,2.72,0,0,0-2.72,2.72v26.56a2.72,2.72,0,0,1-2.72,2.72H66.72A2.72,2.72,0,0,1,64,373.28ZM328,362.72v10.56a2.72,2.72,0,0,1-2.72,2.72H186.72a2.72,2.72,0,0,1-2.72-2.72V362.72a2.72,2.72,0,0,1,2.72-2.72H325.28A2.72,2.72,0,0,1,328,362.72Zm-264,32A2.72,2.72,0,0,1,66.72,392H445.28a2.72,2.72,0,0,1,2.72,2.72v2.56a2.72,2.72,0,0,1-2.72,2.72H66.72A2.72,2.72,0,0,1,64,397.28Zm-48-376A2.72,2.72,0,0,1,18.72,16H45.28A2.72,2.72,0,0,1,48,18.72V125.28A2.72,2.72,0,0,1,45.28,128H18.72A2.72,2.72,0,0,1,16,125.28Zm32,128V397.28A2.72,2.72,0,0,1,45.28,400H34.72A2.72,2.72,0,0,1,32,397.28V146.72A2.72,2.72,0,0,1,34.72,144H45.28A2.72,2.72,0,0,1,48,146.72ZM496,461.28a2.72,2.72,0,0,1-2.72,2.72H18.72A2.72,2.72,0,0,1,16,461.28V418.72A2.72,2.72,0,0,1,18.72,416H493.28a2.72,2.72,0,0,1,2.72,2.72ZM493.29,128H466.72a2.72,2.72,0,0,1-2.72-2.72V18.72A2.72,2.72,0,0,1,466.72,16h26.56A2.72,2.72,0,0,1,496,18.72l0,106.56A2.72,2.72,0,0,1,493.29,128Z"/><path d="M290.72,112h26.56a2.72,2.72,0,0,1,2.72,2.72v58.56a2.72,2.72,0,0,0,2.72,2.72h18.56a2.72,2.72,0,0,1,2.72,2.72v10.56a2.72,2.72,0,0,0,2.72,2.72h10.56a2.72,2.72,0,0,0,2.72-2.72V178.72a2.72,2.72,0,0,1,2.72-2.72h18.56a2.72,2.72,0,0,0,2.72-2.72V114.72a2.72,2.72,0,0,1,2.72-2.72h26.56a2.72,2.72,0,0,0,2.72-2.72V42.72A2.72,2.72,0,0,0,413.28,40H290.72A2.72,2.72,0,0,0,288,42.72v66.56A2.72,2.72,0,0,0,290.72,112Zm74.57,48H338.72a2.72,2.72,0,0,1-2.72-2.72V114.72a2.72,2.72,0,0,1,2.72-2.72h26.56a2.72,2.72,0,0,1,2.72,2.72l0,42.56A2.72,2.72,0,0,1,365.29,160ZM304,58.72A2.72,2.72,0,0,1,306.72,56h90.56A2.72,2.72,0,0,1,400,58.72V93.28A2.72,2.72,0,0,1,397.28,96H306.72A2.72,2.72,0,0,1,304,93.28Z"/><path d="M188.41,303.16l64,32c.12.06.25,0,.37.09A8.15,8.15,0,0,0,256,336a7.91,7.91,0,0,0,3.21-.76c.12-.06.25,0,.37-.09l64-32a8,8,0,0,0,2.88-11.85l-64-88a8.35,8.35,0,0,0-1.78-1.78,8.08,8.08,0,0,0-1.94-1,2.64,2.64,0,0,0-.29-.15h-.13A7.65,7.65,0,0,0,256,200a7.78,7.78,0,0,0-2.14.34c-.11,0-.23,0-.34,0a200.28,200.28,0,0,1-2.22,1.14,8.21,8.21,0,0,0-1.79,1.79l-64,88a8,8,0,0,0,2.89,11.86ZM264,241a2.72,2.72,0,0,1,4.92-1.6l37.17,51.1a2.72,2.72,0,0,1-1,4l-37.16,18.58a2.72,2.72,0,0,1-3.94-2.44Zm-58.09,49.5,37.17-51.1A2.72,2.72,0,0,1,248,241v69.68a2.72,2.72,0,0,1-3.94,2.44L206.9,294.51A2.72,2.72,0,0,1,205.91,290.47Z"/></g></g></svg>