<svg xmlns="http://www.w3.org/2000/svg" viewBox="0 0 507.11 507.11"><defs><style>.cls-1{fill:#161e3d;}.cls-2{fill:#d0333c;}</style></defs><title>Ресурс 1</title><g id="Слой_2" data-name="Слой 2"><g id="Слой_1-2" data-name="Слой 1"><path class="cls-1" d="M507,231.74a8.48,8.48,0,0,0-.47-2.28l-.12-.38a4.43,4.43,0,0,0-.17-.47,8.27,8.27,0,0,0-1.63-2.43l-.23-.24-61.15-61.15V104.65a3.9,3.9,0,0,1-.13-.72,8.34,8.34,0,0,0-.44-2.2l-.11-.34a4.59,4.59,0,0,0-.17-.48,8.56,8.56,0,0,0-1.68-2.53L344.85,2.54A8.42,8.42,0,0,0,342.33.88a3.74,3.74,0,0,0-.52-.19l-.31-.1a9,9,0,0,0-2.2-.45,2.93,2.93,0,0,1-.73-.14h-266a8.66,8.66,0,0,0-8.64,8.65V164.79L2.48,226.2a8.49,8.49,0,0,0-1.62,2.43c-.06.15-.1.29-.15.44l-.12.37a8.71,8.71,0,0,0-.47,2.31,3.12,3.12,0,0,1-.12.68V434.58a8.66,8.66,0,0,0,8.64,8.64H63.89v55.25a8.66,8.66,0,0,0,8.64,8.64h362a8.66,8.66,0,0,0,8.65-8.64V443.22h55.24a8.66,8.66,0,0,0,8.65-8.64V232.43A2.87,2.87,0,0,1,507,231.74Zm-63.77-42.49,34.36,34.36H443.22ZM347.39,29.52,413.7,95.83H347.39ZM81.18,17.3H330.09v87.18a8.66,8.66,0,0,0,8.65,8.65h87.18V223.61H81.18Zm-17.29,172v34.36H29.52Zm362,300.57H81.18v-46.6H425.92Zm63.89-63.89H17.29v-185H489.81Z"/><path class="cls-2" d="M40.51,277.44H72.39c33.48,0,55.49,17.52,55.49,57.17s-22,58.23-54,58.23H40.51ZM70.94,371.8c18,0,30.16-9.59,30.16-37.19s-12.2-36.14-30.16-36.14H66.63V371.8Z"/><path class="cls-2" d="M149.85,334.61c0-38.57,18.93-59.3,46.42-59.3s46.41,20.73,46.41,59.3c0,39.47-18.93,60.35-46.41,60.35S149.85,374.08,149.85,334.61Zm66.05,0c0-24-7.6-36.74-19.63-36.74s-19.64,12.76-19.64,36.74c0,24.89,7.6,37.79,19.64,37.79S215.9,359.5,215.9,334.61Z"/><path class="cls-2" d="M267.84,335.78c0-38.26,24.2-60.47,55.12-60.47,14.63,0,26.63,7,34.43,14.68L343,306.15c-5.51-5.1-11.72-8.28-20.06-8.28-16.38,0-28.35,13.93-28.35,37,0,23.72,12,37.49,29.38,37.49,8.32,0,15.19-4.09,20.79-10.19L359.15,378C349.74,389.15,336.82,395,321.29,395,292.6,395,267.84,374.69,267.84,335.78Z"/><path class="cls-2" d="M410.15,333.44l-31.64-56h29.12l11.18,21.78c2.76,5.31,5.41,11.24,8.88,18.53h.7c2.81-7.29,5.37-13.22,7.82-18.53l10.31-21.78h27.9l-31.64,57.22,33.69,58.18H447.3l-12.5-23.5c-3.19-6-6-11.95-9.25-19h-.71c-2.85,7.08-5.6,13.05-8.49,19l-12,23.5h-27.9Z"/></g></g></svg>