<svg xmlns="http://www.w3.org/2000/svg" viewBox="0 0 511.55 473"><defs><style>.cls-1,.cls-2{stroke:#000;stroke-miterlimit:10;}.cls-1{stroke-width:5px;}</style></defs><title>4Ресурс 1</title><g id="Слой_2" data-name="Слой 2"><g id="Capa_1" data-name="Capa 1"><path class="cls-1" d="M262.68,182a6.91,6.91,0,1,1-6.91-6.91A6.92,6.92,0,0,1,262.68,182Z"/><path class="cls-2" d="M482.32,240.5h-4V225.6a28.76,28.76,0,0,0-9.58-21.4L467.41,203V29.23a28.73,28.73,0,0,0-57.46,0V203l-1.33,1.2a28.78,28.78,0,0,0-9.57,21.39v14.9H112.5V225.6a28.76,28.76,0,0,0-9.58-21.4L101.59,203V29.23a28.73,28.73,0,1,0-57.45,0V203l-1.33,1.2a28.75,28.75,0,0,0-9.58,21.39v14.9h-4A28.76,28.76,0,0,0,.5,269.23V356.5a28.81,28.81,0,0,0,19.16,27.09l2.66.94V465.6a6.92,6.92,0,0,0,6.91,6.9H116.5a6.92,6.92,0,0,0,6.91-6.9V428.87H388.14V465.6a6.92,6.92,0,0,0,6.91,6.9h87.27a6.92,6.92,0,0,0,6.91-6.9V384.53l2.66-.94a28.81,28.81,0,0,0,19.16-27.09V269.23A28.76,28.76,0,0,0,482.32,240.5ZM423.77,29.23a14.91,14.91,0,1,1,29.82,0V196.87H423.77ZM412.86,225.6a14.92,14.92,0,0,1,14.91-14.91h21.82A14.92,14.92,0,0,1,464.5,225.6v14.9H412.86ZM58,29.23a14.91,14.91,0,1,1,29.82,0V196.87H58ZM47.05,225.6A14.91,14.91,0,0,1,62,210.69H83.77A14.92,14.92,0,0,1,98.68,225.6v14.9H47.05Zm62.54,233.09H36.14V428.87h73.45Zm365.82,0H402V428.87h73.46Zm0-43.64H36.14V385.23H475.41Zm21.82-58.55a14.93,14.93,0,0,1-14.91,14.91H29.23A14.93,14.93,0,0,1,14.32,356.5V269.23a14.93,14.93,0,0,1,14.91-14.91H482.32a14.93,14.93,0,0,1,14.91,14.91Z"/><path class="cls-2" d="M282.32,284.14H51.05a6.92,6.92,0,0,0-6.91,6.91v43.64a6.92,6.92,0,0,0,6.91,6.91H282.32a6.92,6.92,0,0,0,6.91-6.91V291.05A6.92,6.92,0,0,0,282.32,284.14Zm-6.91,43.64H58V298H275.41Z"/><path class="cls-2" d="M438.68,284.14a28.73,28.73,0,1,0,28.73,28.73A28.76,28.76,0,0,0,438.68,284.14Zm0,43.64a14.91,14.91,0,1,1,14.91-14.91A14.93,14.93,0,0,1,438.68,327.78Z"/><path class="cls-2" d="M294.07,146.34a6.93,6.93,0,0,1-5.23,6.69,6.81,6.81,0,0,1-5.23-.78,54,54,0,0,0-55.66,0,6.91,6.91,0,1,1-7.12-11.84,67.77,67.77,0,0,1,69.88,0,6.94,6.94,0,0,1,3.36,5.94Z"/><path class="cls-2" d="M351.17,84a6.92,6.92,0,0,1-9.58,1.92l-7.31-4.88a141.06,141.06,0,0,0-157,0L170,85.94a6.91,6.91,0,1,1-7.65-11.5l7.34-4.89a154.84,154.84,0,0,1,172.3,0l7.31,4.87A6.89,6.89,0,0,1,351.17,84Z"/><path class="cls-2" d="M322.06,117.07a6.89,6.89,0,0,1-9.58,1.9L310,117.35a97.59,97.59,0,0,0-108.55,0L199.06,119a6.9,6.9,0,1,1-7.67-11.48l2.43-1.63a111.42,111.42,0,0,1,123.89,0l2.45,1.63A6.93,6.93,0,0,1,322.06,117.07Z"/></g></g></svg>