<svg xmlns="http://www.w3.org/2000/svg" viewBox="0 0 511.3 511.11"><defs><style>.cls-1{fill:#161e3d;}.cls-2{fill:#d0333c;}</style></defs><title>6icon-features-5.svg</title><g id="Слой_2" data-name="Слой 2"><g id="Слой_1-2" data-name="Слой 1"><path class="cls-1" d="M363.9,170.6a8.77,8.77,0,0,1-4.2,1.1,8.49,8.49,0,0,1-7.4-4.3,110.67,110.67,0,0,0-193.2,0,8.51,8.51,0,1,1-14.8-8.4,127.71,127.71,0,0,1,222.9,0A8.54,8.54,0,0,1,363.9,170.6Z"/><path class="cls-1" d="M338.78,180.23a8.58,8.58,0,0,1-4.38,7.47,8.47,8.47,0,0,1-11.6-3.3,76.67,76.67,0,0,0-134.2,0,8.53,8.53,0,1,1-14.9-8.3,93.73,93.73,0,0,1,164,0A8.44,8.44,0,0,1,338.78,180.23Z"/><path class="cls-1" d="M304.9,204.9a9.9,9.9,0,0,1-4.1,1,8.71,8.71,0,0,1-7.5-4.5,42.65,42.65,0,0,0-75.1.1,8.55,8.55,0,0,1-15-8.2,59.71,59.71,0,0,1,105.1,0A8.52,8.52,0,0,1,304.9,204.9Z"/><path class="cls-1" d="M279.6,477.1a25.19,25.19,0,0,0-15.4-15.5V434.5h-17v27.1a25.84,25.84,0,0,0-15.5,15.5H.1v17H231.7a25.36,25.36,0,0,0,47.9,0H511.2v-17Zm-23.9,17a8.5,8.5,0,1,1,8.5-8.5A8.49,8.49,0,0,1,255.7,494.1Z"/><path class="cls-1" d="M255.8,195.9a25.6,25.6,0,1,0,25.6,25.6A25.59,25.59,0,0,0,255.8,195.9Zm-.1,34.1a8.5,8.5,0,1,1,8.5-8.5A8.49,8.49,0,0,1,255.7,230Z"/><path class="cls-1" d="M502.8,264.1H468.7V25.6a25.6,25.6,0,1,0-51.2,0V264.1H93.8V25.6a25.6,25.6,0,1,0-51.2,0V264.1H8.5A8.49,8.49,0,0,0,0,272.6V408.9a8.49,8.49,0,0,0,8.5,8.5H502.8a8.49,8.49,0,0,0,8.5-8.5V272.7A8.58,8.58,0,0,0,502.8,264.1ZM434.6,25.6a8.5,8.5,0,0,1,17,0V264.1h-17Zm-374.8,0a8.5,8.5,0,0,1,17,0V264.1h-17ZM434.6,400.4H76.8V332.2H434.6Zm59.7,0H451.6V323.7a8.49,8.49,0,0,0-8.5-8.5H68.3a8.49,8.49,0,0,0-8.5,8.5v76.7H17.2V281.2H494.3Z"/><path class="cls-2" d="M255.8,195.9a25.6,25.6,0,1,0,25.6,25.6A25.59,25.59,0,0,0,255.8,195.9Zm-.1,34.1a8.5,8.5,0,1,1,8.5-8.5A8.49,8.49,0,0,1,255.7,230Z"/><path class="cls-2" d="M308.3,193.3a8.52,8.52,0,0,1-3.4,11.6,9.9,9.9,0,0,1-4.1,1,8.71,8.71,0,0,1-7.5-4.5,42.65,42.65,0,0,0-75.1.1,8.55,8.55,0,0,1-15-8.2,59.71,59.71,0,0,1,105.1,0Z"/><path class="cls-2" d="M337.7,176.1a8.44,8.44,0,0,1,1.08,4.13,8.58,8.58,0,0,1-4.38,7.47,8.47,8.47,0,0,1-11.6-3.3,76.67,76.67,0,0,0-134.2,0,8.53,8.53,0,1,1-14.9-8.3,93.73,93.73,0,0,1,164,0Z"/><path class="cls-2" d="M363.9,170.6a8.77,8.77,0,0,1-4.2,1.1,8.49,8.49,0,0,1-7.4-4.3,110.67,110.67,0,0,0-193.2,0,8.51,8.51,0,1,1-14.8-8.4,127.71,127.71,0,0,1,222.9,0A8.54,8.54,0,0,1,363.9,170.6Z"/></g></g></svg>