<svg height="512" viewBox="0 0 512 512.06292" width="512" xmlns="http://www.w3.org/2000/svg" fill="#E6E6EA"><path d="m469.363281 102.464844h-60.167969c-4.371093-57.800782-52.542968-102.464844-110.503906-102.464844-57.964844 0-106.136718 44.664062-110.507812 102.464844h-145.484375c-23.554688.027344-42.6406252 19.113281-42.667969 42.664062v324.265625c.0273438 23.554688 19.113281 42.640625 42.667969 42.667969h426.664062c23.554688-.027344 42.640625-19.113281 42.667969-42.667969v-324.265625c-.027344-23.550781-19.113281-42.636718-42.667969-42.664062zm-281.597656 187.730468c-4.714844 0-8.535156-3.820312-8.535156-8.53125v-25.601562h34.132812v25.601562c0 4.710938-3.820312 8.53125-8.53125 8.53125zm-34.132813-51.199218c-4.714843 0-8.535156-3.820313-8.535156-8.53125v-51.203125c0-4.710938 3.820313-8.53125 8.535156-8.53125h85.332032c4.710937 0 8.535156 3.820312 8.535156 8.53125v51.203125c0 4.710937-3.824219 8.53125-8.535156 8.53125zm-76.800781-17.066406v-34.132813h51.199219v34.132813zm187.734375-34.132813h170.664063v34.132813h-170.664063zm170.664063-17.066406h-172.234375c-3.605469-10.191407-13.222656-17.023438-24.03125-17.066407h-34.132813v-34.132812h230.398438zm-136.53125-153.601563c48.5.066406 88.980469 37.039063 93.429687 85.335938h-186.878906c4.449219-48.304688 44.941406-85.28125 93.449219-85.335938zm-110.933594 102.402344v34.132812h-34.132813c-10.8125.042969-20.429687 6.875-24.03125 17.066407h-52.769531v-51.199219zm-170.667969 349.863281v-324.265625c0-14.136718 11.460938-25.597656 25.601563-25.597656h17.066406v375.464844h-17.066406c-14.140625 0-25.601563-11.460938-25.601563-25.601563zm59.734375 25.601563v-256h52.769531c3.601563 10.191406 13.21875 17.023437 24.03125 17.066406h8.53125v25.601562c0 14.136719 11.460938 25.597657 25.601563 25.597657v17.066406c0 4.714844 3.820313 8.535156 8.53125 8.535156 4.714844 0 8.535156-3.820312 8.535156-8.535156v-17.066406c14.136719 0 25.597657-11.460938 25.597657-25.597657v-25.601562h8.535156c10.808594-.042969 20.425781-6.875 24.03125-17.066406h172.234375v256zm392.53125 0h-17.066406v-375.464844h17.066406c14.140625 0 25.601563 11.460938 25.601563 25.597656v238.933594h-17.066406c-4.714844 0-8.535157 3.820312-8.535157 8.535156 0 4.710938 3.820313 8.53125 8.535157 8.53125h17.066406v17.066406h-17.066406c-4.714844 0-8.535157 3.820313-8.535157 8.535157 0 4.710937 3.820313 8.53125 8.535157 8.53125h17.066406v34.132812c0 14.140625-11.460938 25.601563-25.601563 25.601563zm0 0"/><path d="m176.757812 198.804688c-.832031-.753907-1.785156-1.359376-2.816406-1.792969-1.558594-.679688-3.285156-.859375-4.949218-.511719-.535157.09375-1.054688.265625-1.535157.511719-.546875.1875-1.0625.445312-1.539062.769531-.445313.3125-.875.65625-1.277344 1.023438-.753906.828124-1.359375 1.78125-1.792969 2.816406-.4375 1.023437-.667968 2.125-.683594 3.242187-.023437 2.269531.871094 4.453125 2.476563 6.058594 1.601563 1.605469 3.789063 2.496094 6.058594 2.472656 1.117187.03125 2.230469-.203125 3.242187-.679687 1.03125-.433594 1.984375-1.039063 2.816406-1.792969 1.558594-1.636719 2.441407-3.800781 2.472657-6.058594-.011719-1.117187-.246094-2.21875-.683594-3.242187-.429687-1.035156-1.035156-1.988282-1.789063-2.816406zm0 0"/><path d="m227.957031 198.804688c-.832031-.753907-1.78125-1.359376-2.816406-1.792969-1.554687-.679688-3.285156-.859375-4.949219-.511719-.535156.09375-1.050781.265625-1.535156.511719-.542969.1875-1.0625.445312-1.535156.769531-.449219.3125-.875.65625-1.28125 1.023438-.753906.828124-1.359375 1.78125-1.792969 2.816406-.4375 1.023437-.667969 2.125-.683594 3.242187-.023437 2.269531.871094 4.453125 2.476563 6.058594 1.605468 1.605469 3.789062 2.496094 6.058594 2.472656 1.117187.03125 2.230468-.203125 3.242187-.679687 1.035156-.433594 1.984375-1.039063 2.816406-1.792969 1.558594-1.636719 2.441407-3.800781 2.472657-6.058594-.011719-1.117187-.242188-2.21875-.679688-3.242187-.433594-1.035156-1.039062-1.988282-1.792969-2.816406zm0 0"/><path d="m401.097656 315.796875c-4.710937 0-8.53125 3.820313-8.53125 8.53125v128h-76.800781c-4.714844 0-8.535156 3.820313-8.535156 8.535156 0 4.710938 3.820312 8.53125 8.535156 8.53125h85.332031c4.714844 0 8.535156-3.820312 8.535156-8.53125v-136.535156c0-4.710937-3.820312-8.53125-8.535156-8.53125zm0 0"/><path d="m290.164062 315.796875c-4.710937 0-8.53125 3.820313-8.53125 8.53125v34.136719h-162.132812v-34.136719c0-4.710937-3.824219-8.53125-8.535156-8.53125-4.710938 0-8.535156 3.820313-8.535156 8.53125v136.535156c0 4.710938 3.824218 8.53125 8.535156 8.53125h34.132812c4.714844 0 8.535156-3.820312 8.535156-8.53125 0-4.714843-3.820312-8.535156-8.535156-8.535156h-25.597656v-76.796875h93.863281v76.796875h-25.597656c-4.714844 0-8.535156 3.820313-8.535156 8.535156 0 4.710938 3.820312 8.53125 8.535156 8.53125h68.265625c4.714844 0 8.535156-3.820312 8.535156-8.53125 0-4.714843-3.820312-8.535156-8.535156-8.535156h-25.601562v-76.796875h59.734374c4.714844 0 8.535157-3.820312 8.535157-8.535156v-42.667969c0-4.710937-3.820313-8.53125-8.535157-8.53125zm0 0"/></svg>