<svg height="512" viewBox="0 -38 512 512" width="512" xmlns="http://www.w3.org/2000/svg" fill="#E6E6EA"><path d="m332.800781 435.199219c-2.183593 0-4.371093-.835938-6.035156-2.5l-48.699219-48.699219h-90.351562c-18.816406 0-34.113282-15.300781-34.113282-34.117188v-213.347656c0-4.710937 3.820313-8.535156 8.53125-8.535156h315.75c18.816407 0 34.117188 15.300781 34.117188 34.117188v187.765624c0 18.816407-15.300781 34.117188-34.117188 34.117188h-90.351562l-48.699219 48.699219c-1.664062 1.664062-3.847656 2.5-6.03125 2.5zm-162.132812-290.132813v204.816406c0 9.40625 7.644531 17.050782 17.046875 17.050782h93.886718c2.261719 0 4.4375.894531 6.03125 2.5l45.167969 45.167968 45.167969-45.167968c1.59375-1.605469 3.769531-2.5 6.03125-2.5h93.882812c9.40625 0 17.050782-7.644532 17.050782-17.050782v-187.765624c0-9.40625-7.644532-17.050782-17.050782-17.050782zm0 0"/><path d="m162.132812 273.066406h-128.015624c-18.816407 0-34.117188-15.300781-34.117188-34.117187v-204.832031c0-18.816407 15.300781-34.117188 34.117188-34.117188h290.167968c18.816406 0 34.113282 15.300781 34.113282 34.117188v102.417968c0 4.707032-3.820313 8.53125-8.53125 8.53125h-179.199219v119.46875c0 4.707032-3.824219 8.53125-8.535157 8.53125zm-128.015624-256c-9.40625 0-17.050782 7.644532-17.050782 17.050782v204.832031c0 9.40625 7.644532 17.050781 17.050782 17.050781h119.484374v-119.464844c0-4.710937 3.820313-8.535156 8.53125-8.535156h179.199219v-93.882812c0-9.40625-7.644531-17.050782-17.046875-17.050782zm0 0"/><path d="m281.601562 238.933594c-18.824218 0-34.136718-15.308594-34.136718-34.132813s15.3125-34.132812 34.136718-34.132812c18.824219 0 34.132813 15.308593 34.132813 34.132812s-15.308594 34.132813-34.132813 34.132813zm0-51.199219c-9.414062 0-17.066406 7.652344-17.066406 17.066406 0 9.410157 7.652344 17.066407 17.066406 17.066407 9.410157 0 17.066407-7.65625 17.066407-17.066407 0-9.414062-7.65625-17.066406-17.066407-17.066406zm0 0"/><path d="m384 341.332031c-18.824219 0-34.132812-15.308593-34.132812-34.132812s15.308593-34.132813 34.132812-34.132813 34.132812 15.308594 34.132812 34.132813-15.308593 34.132812-34.132812 34.132812zm0-51.199219c-9.414062 0-17.066406 7.65625-17.066406 17.066407 0 9.414062 7.652344 17.066406 17.066406 17.066406s17.066406-7.652344 17.066406-17.066406c0-9.410157-7.652344-17.066407-17.066406-17.066407zm0 0"/><path d="m290.125 341.332031c-1.398438 0-2.824219-.347656-4.140625-1.074219-4.121094-2.285156-5.605469-7.484374-3.316406-11.605468l85.332031-153.597656c2.285156-4.113282 7.484375-5.609376 11.605469-3.3125 4.121093 2.285156 5.605469 7.484374 3.320312 11.605468l-85.335937 153.597656c-1.558594 2.800782-4.460938 4.386719-7.464844 4.386719zm0 0"/><path d="m76.800781 162.132812c-18.824219 0-34.132812-15.308593-34.132812-34.132812s15.308593-34.132812 34.132812-34.132812 34.132813 15.308593 34.132813 34.132812-15.308594 34.132812-34.132813 34.132812zm0-51.199218c-9.414062 0-17.066406 7.652344-17.066406 17.066406s7.652344 17.066406 17.066406 17.066406c9.410157 0 17.066407-7.652344 17.066407-17.066406s-7.65625-17.066406-17.066407-17.066406zm0 0"/><path d="m162.132812 155.496094c-2.074218 0-4.113281-.753906-5.71875-2.195313-7.207031-6.5-11.347656-15.726562-11.347656-25.300781 0-18.824219 15.308594-34.132812 34.132813-34.132812s34.132812 15.308593 34.132812 34.132812c0 3.753906-.671875 7.484375-2.054687 11.382812-1.210938 3.40625-4.429688 5.683594-8.046875 5.683594h-32.5625v1.894532c0 3.371093-1.980469 6.425781-5.070313 7.800781-1.109375.484375-2.285156.734375-3.464844.734375zm0-27.496094h34.132813c0-9.414062-7.652344-17.066406-17.066406-17.066406-9.410157 0-17.066407 7.652344-17.066407 17.066406zm0 0"/><path d="m305.628906 145.066406h-48.066406c-3.609375 0-6.835938-2.277344-8.039062-5.683594-1.382813-3.898437-2.058594-7.628906-2.058594-11.382812 0-18.824219 15.3125-34.132812 34.136718-34.132812 18.824219 0 34.132813 15.308593 34.132813 34.132812 0 3.753906-.675781 7.484375-2.058594 11.382812-1.210937 3.40625-4.429687 5.683594-8.046875 5.683594zm-41.09375-17.066406h34.132813c0-9.414062-7.65625-17.066406-17.066407-17.066406-9.414062 0-17.066406 7.652344-17.066406 17.066406zm0 0"/></svg>