<svg width="376" height="482" viewBox="0 0 376 482" fill="none" xmlns="http://www.w3.org/2000/svg">
    <g clip-path="url(#clip0)">
        <path d="M187.67 129.3C179.583 129.3 171.677 131.698 164.953 136.191C158.228 140.684 152.987 147.07 149.893 154.542C146.798 162.014 145.988 170.235 147.566 178.167C149.143 186.099 153.038 193.385 158.756 199.104C164.475 204.822 171.761 208.717 179.693 210.294C187.625 211.872 195.846 211.062 203.318 207.967C210.79 204.873 217.176 199.632 221.669 192.907C226.162 186.183 228.56 178.277 228.56 170.19C228.561 164.82 227.505 159.502 225.45 154.541C223.396 149.579 220.384 145.071 216.587 141.273C212.789 137.476 208.281 134.464 203.32 132.41C198.358 130.355 193.04 129.299 187.67 129.3ZM187.67 200.16C181.737 200.16 175.936 198.401 171.003 195.104C166.069 191.808 162.224 187.122 159.954 181.64C157.683 176.159 157.089 170.127 158.246 164.307C159.404 158.488 162.261 153.142 166.457 148.947C170.652 144.751 175.998 141.894 181.817 140.736C187.637 139.579 193.669 140.173 199.151 142.444C204.632 144.714 209.318 148.559 212.614 153.493C215.911 158.426 217.67 164.227 217.67 170.16C217.67 178.116 214.509 185.747 208.883 191.373C203.257 196.999 195.627 200.16 187.67 200.16Z" fill="#DDDDDD" stroke="#E6E6EA" stroke-width="3" stroke-miterlimit="10"/>
        <path d="M344 140.22H340.27V28.94C340.27 14.2 329.27 1.94 314.6 1.59L314.97 1.5H314.6C314.5 1.5 313.94 1.59 313.85 1.59C307.66 1.70043 301.691 3.91408 296.926 7.86695C292.161 11.8198 288.882 17.2766 287.63 23.34H85.92C83.56 11.05 73.53 1.92 60.59 1.59C60.4 1.59 60.78 1.5 60.68 1.5H60.31L59.38 1.59C52.1871 1.70489 45.3251 4.63171 40.2636 9.74368C35.2021 14.8556 32.3435 21.7463 32.3 28.94V308.54H31.37C23.448 308.54 15.8504 311.687 10.2487 317.289C4.64701 322.89 1.5 330.488 1.5 338.41C1.5 346.332 4.64701 353.93 10.2487 359.531C15.8504 365.133 23.448 368.28 31.37 368.28H32.3V388.28C32.3 391.28 36.13 393.61 39.12 393.61H65.54C66.2357 393.625 66.9239 393.463 67.54 393.14H95.34V402.66C95.3558 408.49 97.6788 414.076 101.801 418.199C105.924 422.321 111.51 424.644 117.34 424.66H145.53V474.05C145.533 475.511 146.114 476.91 147.147 477.943C148.18 478.976 149.579 479.557 151.04 479.56H230.9C232.356 479.542 233.747 478.956 234.776 477.926C235.806 476.897 236.392 475.506 236.41 474.05V424.67H258C263.845 424.665 269.451 422.349 273.597 418.228C277.742 414.108 280.09 408.515 280.13 402.67V393.15H308.26C309.058 393.446 309.899 393.605 310.75 393.62H336.23C339.32 393.62 340.23 391.28 340.23 388.29V200.06H344C351.935 200.06 359.546 196.908 365.157 191.297C370.768 185.686 373.92 178.075 373.92 170.14C373.92 162.205 370.768 154.594 365.157 148.983C359.546 143.372 351.935 140.22 344 140.22ZM32.3 357.27H31.37C26.3441 357.27 21.5241 355.273 17.9703 351.72C14.4165 348.166 12.42 343.346 12.42 338.32C12.42 333.294 14.4165 328.474 17.9703 324.92C21.5241 321.367 26.3441 319.37 31.37 319.37H32.3V357.27ZM87.94 34.36H287V48H87.94V34.36ZM86.45 59H287V146.37H273.57V101.2C273.562 94.4438 270.875 87.9664 266.099 83.1881C261.322 78.4098 254.846 75.7206 248.09 75.71H127.15C120.394 75.7206 113.917 78.4098 109.141 83.1881C104.365 87.9664 101.678 94.4438 101.67 101.2V146.38H86.45V59ZM287 157.4V182.79H273.67V157.4H287ZM262.73 189.3V239C262.725 242.862 261.188 246.563 258.456 249.293C255.725 252.023 252.022 253.557 248.16 253.56H127.24C123.379 253.557 119.677 252.023 116.947 249.293C114.217 246.563 112.683 242.861 112.68 239V101.11C112.683 97.2483 114.217 93.5455 116.947 90.8139C119.677 88.0824 123.378 86.5453 127.24 86.54C127.24 86.54 248.09 86.54 248.18 86.64C252.042 86.6426 255.745 88.1772 258.476 90.9068C261.208 93.6365 262.745 97.3383 262.75 101.2V150.9C262.685 151.229 262.652 151.564 262.65 151.9V188.3C262.653 188.636 262.687 188.97 262.75 189.3H262.73ZM101.67 157.4V182.79H87.94V157.4H101.67ZM86.45 193.81H101.67V239.08C101.675 245.837 104.361 252.316 109.138 257.095C113.915 261.874 120.393 264.562 127.15 264.57H248.09C251.44 264.581 254.759 263.928 257.856 262.651C260.952 261.374 263.766 259.496 266.134 257.127C268.502 254.758 270.379 251.944 271.655 248.846C272.931 245.749 273.582 242.43 273.57 239.08V193.81H287V284.08H86.45V193.81ZM65.26 284.08C64.3172 284.079 63.3902 284.322 62.5686 284.785C61.747 285.247 61.0586 285.914 60.57 286.72C59.823 287.567 59.4012 288.651 59.38 289.78V382.38H43.51V366.09C44.2332 365.138 44.6264 363.976 44.63 362.78V314.05C44.6279 312.851 44.2346 311.685 43.51 310.73V28.94C43.4663 26.8305 43.8402 24.7331 44.6103 22.7687C45.3804 20.8042 46.5315 19.0115 47.9972 17.4938C49.463 15.976 51.2144 14.7631 53.1508 13.9249C55.0872 13.0868 57.1702 12.6399 59.28 12.61C68.34 12.61 75.28 19.8 75.28 28.94V284.08H65.26ZM225.4 468.64H156.56V424.76H225.4V468.64ZM269.19 402.64C269.182 405.584 268.009 408.405 265.927 410.487C263.845 412.569 261.024 413.742 258.08 413.75H117.35C114.406 413.742 111.585 412.569 109.503 410.487C107.421 408.405 106.248 405.584 106.24 402.64V393.12H269.24L269.19 402.64ZM303.82 382.2H275.59C275.261 382.135 274.926 382.102 274.59 382.1H100.82C100.484 382.102 100.149 382.135 99.82 382.2H70.67V295.56H82C82.732 295.571 83.4526 295.377 84.08 295H291C291.757 295.359 292.582 295.55 293.42 295.56H303.87L303.82 382.2ZM329.96 382.38H315.58V289.59C315.577 288.131 314.997 286.733 313.967 285.7C312.936 284.668 311.539 284.085 310.08 284.08H297.29V189.08C297.335 188.809 297.365 188.535 297.38 188.26V151.89C297.377 151.555 297.347 151.22 297.29 150.89V28.89C297.395 24.6277 299.163 20.5754 302.215 17.598C305.267 14.6207 309.361 12.9542 313.625 12.9542C317.889 12.9542 321.983 14.6207 325.035 17.598C328.087 20.5754 329.855 24.6277 329.96 28.89V382.38ZM343.96 189.14H341.63V151.24H344C346.604 151.051 349.22 151.4 351.683 152.267C354.146 153.133 356.404 154.498 358.316 156.276C360.228 158.055 361.754 160.208 362.796 162.602C363.839 164.996 364.378 167.579 364.378 170.19C364.378 172.801 363.839 175.384 362.796 177.778C361.754 180.172 360.228 182.325 358.316 184.104C356.404 185.882 354.146 187.247 351.683 188.113C349.22 188.98 346.604 189.329 344 189.14H343.96Z" fill="#DDDDDD" stroke="#E6E6EA" stroke-width="3" stroke-miterlimit="10"/>
    </g>
    <defs>
        <clipPath id="clip0">
            <rect width="375.34" height="481.07" fill="white"/>
        </clipPath>
    </defs>
</svg>
