<svg xmlns="http://www.w3.org/2000/svg" viewBox="0 0 375.34 481.07"><defs><style>.cls-1{stroke:#000;stroke-miterlimit:10;stroke-width:3px;}</style></defs><title>3Ресурс 1</title><g id="Слой_2" data-name="Слой 2"><g id="Capa_1" data-name="Capa 1"><path class="cls-1" d="M187.67,129.3a40.89,40.89,0,1,0,40.89,40.89A40.88,40.88,0,0,0,187.67,129.3Zm0,70.86a30,30,0,1,1,30-30A30,30,0,0,1,187.67,200.16Z"/><path class="cls-1" d="M344,140.22h-3.73V28.94c0-14.74-11-27-25.67-27.35l.37-.09h-.37c-.1,0-.66.09-.75.09a27.27,27.27,0,0,0-26.22,21.75H85.92C83.56,11.05,73.53,1.92,60.59,1.59c-.19,0,.19-.09.09-.09h-.37l-.93.09A27.52,27.52,0,0,0,32.3,28.94v279.6h-.93a29.87,29.87,0,0,0,0,59.74h.93v20c0,3,3.83,5.33,6.82,5.33H65.54a4.11,4.11,0,0,0,2-.47h27.8v9.52a22.06,22.06,0,0,0,22,22h28.19v49.39a5.52,5.52,0,0,0,5.51,5.51h79.86a5.58,5.58,0,0,0,5.51-5.51V424.67H258a22.15,22.15,0,0,0,22.13-22v-9.52h28.13a7.54,7.54,0,0,0,2.49.47h25.48c3.09,0,4-2.34,4-5.33V200.06H344a29.92,29.92,0,0,0,0-59.84ZM32.3,357.27h-.93a18.95,18.95,0,0,1,0-37.9h.93ZM87.94,34.36H287V48H87.94ZM86.45,59H287v87.37H273.57V101.2a25.52,25.52,0,0,0-25.48-25.49H127.15a25.52,25.52,0,0,0-25.48,25.49v45.18H86.45ZM287,157.4v25.39H273.67V157.4Zm-24.27,31.9V239a14.58,14.58,0,0,1-14.57,14.56H127.24A14.57,14.57,0,0,1,112.68,239V101.11a14.58,14.58,0,0,1,14.56-14.57s120.85,0,120.94.1a14.58,14.58,0,0,1,14.57,14.56v49.7a5.36,5.36,0,0,0-.1,1V188.3A5.56,5.56,0,0,0,262.75,189.3ZM101.67,157.4v25.39H87.94V157.4ZM86.45,193.81h15.22v45.27a25.51,25.51,0,0,0,25.48,25.49H248.09a25.4,25.4,0,0,0,25.48-25.49V193.81H287v90.27H86.45ZM65.26,284.08a5.48,5.48,0,0,0-4.69,2.64,4.76,4.76,0,0,0-1.19,3.06v92.6H43.51V366.09a5.5,5.5,0,0,0,1.12-3.31V314.05a5.51,5.51,0,0,0-1.12-3.32V28.94A16,16,0,0,1,59.28,12.61c9.06,0,16,7.19,16,16.33V284.08ZM225.4,468.64H156.56V424.76H225.4Zm43.79-66a11.14,11.14,0,0,1-11.11,11.11H117.35a11.14,11.14,0,0,1-11.11-11.11v-9.52h163Zm34.63-20.44H275.59a5.36,5.36,0,0,0-1-.1H100.82a5.36,5.36,0,0,0-1,.1H70.67V295.56H82a3.92,3.92,0,0,0,2.08-.56H291a5.82,5.82,0,0,0,2.42.56h10.45Zm26.14.18H315.58V289.59a5.52,5.52,0,0,0-5.5-5.51H297.29v-95a7.34,7.34,0,0,0,.09-.82V151.89a6.25,6.25,0,0,0-.09-1v-122a16.34,16.34,0,0,1,32.67,0Zm14-193.24h-2.33v-37.9H344a19,19,0,1,1,0,37.9Z"/></g></g></svg>