<svg width="477" height="477" viewBox="0 0 477 477" fill="none" xmlns="http://www.w3.org/2000/svg">
    <path d="M468.49 214.48C466.314 210.356 463.106 206.866 459.18 204.35C455.298 202.062 450.855 200.901 446.35 201C415.103 201 383.853 201 352.6 201H328.79C327.97 201 327.21 201 326.53 201.06C314.26 202.06 304.27 212.98 304.25 225.37C304.25 238.39 304.25 251.417 304.25 264.45V281.83C304.25 287.03 302.01 289.24 296.82 289.24H195.6C190.36 289.24 188.12 287 188.12 281.75C188.12 247.083 188.12 212.383 188.12 177.65C188.12 172.65 190.38 170.37 195.44 170.37H211.44C228.04 170.37 245.2 170.37 262.09 170.37C262.703 170.442 263.324 170.318 263.862 170.016C264.401 169.715 264.831 169.25 265.09 168.69C269.84 161.11 274.58 153.61 280.23 144.69C287.02 134.01 293.66 123.56 300.41 113.03C300.64 112.67 300.86 112.3 301.08 111.93C302.151 109.779 303.743 107.93 305.71 106.55C312.07 102.61 315.5 97.26 316.21 90.18C317.02 81.97 314.47 75.54 308.39 70.52L307.02 69.43C304.532 67.6682 302.395 65.4569 300.72 62.91C295.86 54.97 290.72 46.96 285.8 39.22C283.8 36.0467 281.777 32.8733 279.73 29.7C274.817 21.9467 269.907 14.17 265 6.36999C264.796 5.90637 264.447 5.52185 264.005 5.27464C263.562 5.02744 263.052 4.93102 262.55 4.99999C258.62 5.08999 254.64 5.06999 250.79 4.99999H245.66H203.59C154.923 4.99999 106.28 4.99999 57.6601 4.99999C57.1992 4.95719 56.7365 5.05949 56.3367 5.29258C55.9369 5.52567 55.6199 5.87789 55.4301 6.29999L54.4301 7.89999L52.4301 11.06L47.6501 18.58C37.6501 34.3133 27.6501 50.0433 17.6501 65.77C16.7298 67.1794 15.5363 68.3899 14.1401 69.33C11.8721 70.8185 9.96009 72.7885 8.54007 75.1C5.06007 80.75 4.16007 86.85 5.78007 93.74C7.18007 99.67 10.1201 103.86 14.7801 106.56C16.3758 107.41 17.7468 108.626 18.7801 110.11C21.8501 114.93 24.8901 119.86 27.7801 124.63L35.7001 137.4C41.8901 147.4 48.3001 157.7 54.5301 167.91C54.9244 168.765 55.581 169.473 56.4045 169.929C57.2281 170.386 58.1758 170.568 59.1101 170.45C73.3301 170.35 87.7701 170.35 101.75 170.35C109.83 170.35 117.907 170.35 125.98 170.35C130.37 170.35 133.09 173.06 133.09 177.43C133.09 210.84 133.03 244.72 133.09 278.12C133.09 286.26 133.09 294.4 133.19 302.54C133.23 308.96 133.26 315.38 133.28 321.8C133.28 324.1 133.28 326.41 133.19 328.63C133.14 330.53 133.1 332.43 133.09 334.33C133.09 341.423 133.09 348.51 133.09 355.59V394.39C133.09 419.057 133.09 443.723 133.09 468.39C133.06 469.207 133.342 470.004 133.88 470.62C134.151 470.858 134.47 471.035 134.814 471.14C135.159 471.246 135.523 471.276 135.88 471.23C145.36 471.14 155 471.15 164.32 471.15C171.51 471.15 178.71 471.15 185.9 471.15C186.506 471.115 187.096 470.937 187.62 470.63C187.79 470.53 188.18 470.29 188.18 468.28C188.18 449.96 188.18 431.627 188.18 413.28C188.18 388.853 188.18 364.423 188.18 339.99C188.134 339.037 188.279 338.085 188.605 337.189C188.931 336.293 189.433 335.47 190.08 334.77C190.776 334.126 191.594 333.628 192.485 333.305C193.376 332.982 194.323 332.841 195.27 332.89C224.917 332.89 254.583 332.89 284.27 332.89H296.98C302.08 332.89 304.36 335.15 304.36 340.21V355.48C304.36 373.3 304.36 391.113 304.36 408.92C304.321 411.203 304.448 413.486 304.74 415.75C306.5 427.28 317.09 436.3 328.86 436.31H339.32C374.64 436.31 411.15 436.31 447.06 436.24C449.646 436.205 452.207 435.725 454.63 434.82C465.36 430.82 471.27 422.27 471.27 410.64V300.15C471.27 275.303 471.27 250.447 471.27 225.58C471.328 221.701 470.37 217.874 468.49 214.48V214.48ZM311.71 90.88C310.47 98.64 305.38 103.55 297.71 104.34C295.194 104.583 292.667 104.694 290.14 104.67H287.3H284.82C278.82 104.67 272.76 104.67 266.73 104.6H257.73H256.73C255.24 104.6 253.73 104.6 252.26 104.6C251.375 104.649 250.489 104.516 249.656 104.21C248.824 103.904 248.063 103.431 247.42 102.82C246.814 102.204 246.342 101.469 246.032 100.662C245.723 99.8553 245.582 98.9934 245.62 98.13C245.62 91.06 245.62 84.13 245.62 77.44C245.587 76.5917 245.727 75.7456 246.031 74.9531C246.336 74.1606 246.798 73.4382 247.39 72.83C248.028 72.2196 248.784 71.7446 249.61 71.4335C250.437 71.1225 251.318 70.9818 252.2 71.02H261V70.86H272.7C279.33 70.86 286.18 70.86 292.92 70.86H293.31C295.756 70.7666 298.203 71.0362 300.57 71.66V71.66C308.44 74 313.12 82.14 311.71 90.88ZM27.8001 58.49C28.2601 57.76 28.6901 57.05 29.1101 56.36C29.8801 55.1 30.6201 53.89 31.3801 52.7L40.8401 37.8C45.9401 29.8 51.0334 21.7733 56.1201 13.72C56.9068 12.3364 58.0567 11.1943 59.4456 10.417C60.8344 9.63974 62.4094 9.25693 64.0001 9.30999C126.74 9.36999 191.63 9.36999 256.89 9.30999C258.397 9.31687 259.873 9.73375 261.161 10.5159C262.449 11.2981 263.499 12.4161 264.2 13.75L271 24.44L275.67 31.82C279.297 37.54 282.93 43.2633 286.57 48.99L291.57 56.89C291.78 57.23 291.96 57.54 292.19 57.89L296.75 65.69L288.55 66.12H287.72C287.16 66.12 286.72 66.19 286.27 66.19H276.57C267.96 66.19 259.35 66.19 250.74 66.19C249.256 66.2592 247.789 65.8547 246.551 65.035C245.312 64.2152 244.366 63.0227 243.85 61.63C242.45 58.1704 240.235 55.1001 237.393 52.68C234.552 50.26 231.168 48.5619 227.53 47.73C222.021 46.4086 216.221 47.0916 211.169 49.6569C206.117 52.2221 202.144 56.502 199.96 61.73C199.469 63.0718 198.566 64.224 197.381 65.0215C196.195 65.8191 194.788 66.2211 193.36 66.17H193.3C168.92 66.17 147.55 66.17 128.02 66.17C126.54 66.2191 125.083 65.7879 123.869 64.9408C122.654 64.0936 121.746 62.876 121.28 61.47C118.21 53.41 109.22 47.22 100.36 47.05C96.8659 46.8778 93.378 47.4961 90.1559 48.8587C86.9338 50.2213 84.0605 52.2931 81.7501 54.92C80.3777 56.6012 79.2065 58.437 78.2601 60.39L77.2601 62.29C76.6633 63.4802 75.7396 64.4755 74.5971 65.1592C73.4547 65.8429 72.141 66.1866 70.8101 66.15C62.6367 66.15 54.4467 66.15 46.2401 66.15H33.8701C33.3447 66.1441 32.8202 66.104 32.3001 66.03L31.6101 65.96L23.5501 65.24L27.8001 58.49ZM241.17 104.13C241.173 108.864 239.497 113.446 236.44 117.06C233.925 120.002 230.571 122.105 226.827 123.089C223.083 124.072 219.129 123.889 215.492 122.563C211.856 121.238 208.711 118.833 206.478 115.671C204.246 112.509 203.032 108.741 203 104.87C203 101.99 203 99.12 202.93 96.24C202.93 92.24 202.903 88.26 202.85 84.3C202.85 79.73 202.85 75.09 202.85 70.51C202.903 65.8064 204.695 61.2887 207.879 57.827C211.064 54.3652 215.417 52.2042 220.1 51.76C224.914 51.3247 229.715 52.7164 233.551 55.6584C237.386 58.6005 239.974 62.8776 240.8 67.64C241.042 69.2252 241.166 70.8263 241.17 72.43C241.17 76.16 241.17 79.87 241.17 83.58V92.58C241.2 96.43 241.21 100.28 241.17 104.13V104.13ZM198.34 97.64V97.79C198.386 98.7052 198.246 99.6203 197.928 100.48C197.61 101.339 197.121 102.125 196.49 102.79C195.789 103.443 194.964 103.948 194.064 104.274C193.163 104.601 192.206 104.742 191.25 104.69C183.68 104.64 175.98 104.69 168.53 104.69H155.91C148.44 104.69 140.96 104.69 133.48 104.69C132.29 104.71 131.102 104.79 129.92 104.93H129.12C127.502 104.979 125.928 104.398 124.73 103.31C124.047 102.655 123.515 101.86 123.169 100.98C122.824 100.099 122.674 99.1542 122.73 98.21C122.87 90.8 122.95 84.07 122.98 77.6C122.914 76.68 123.047 75.7566 123.371 74.8929C123.694 74.0291 124.2 73.2453 124.854 72.595C125.508 71.9447 126.295 71.4432 127.161 71.1248C128.026 70.8064 128.95 70.6786 129.87 70.75C135.2 70.81 140.72 70.81 146.26 70.75C148 70.75 149.74 70.67 151.48 70.61C153.75 70.53 156.09 70.45 158.48 70.46C164.52 70.46 170.567 70.51 176.62 70.61C181.607 70.6567 186.607 70.7 191.62 70.74C192.529 70.7053 193.436 70.8538 194.286 71.1768C195.137 71.4998 195.913 71.9906 196.57 72.62C197.188 73.2708 197.667 74.0412 197.977 74.8839C198.286 75.7265 198.42 76.6236 198.37 77.52C198.27 85.38 198.27 91.77 198.34 97.64V97.64ZM80.2501 82.2C80.1801 77.98 80.1201 73.61 80.3901 69.2C80.6744 64.765 82.5298 60.5765 85.6233 57.3858C88.7168 54.1952 92.846 52.2113 97.2701 51.79C101.671 51.3105 106.102 52.3624 109.818 54.7686C113.534 57.1748 116.307 60.7882 117.67 65C118.153 66.4458 118.416 67.956 118.45 69.48C118.58 79.32 118.66 88.05 118.7 96.18V98.04C118.784 101.163 118.691 104.288 118.42 107.4C118.123 110.298 117.048 113.062 115.31 115.4C113.383 117.968 110.945 120.11 108.15 121.69C105.518 123.118 102.574 123.873 99.5801 123.89C96.736 123.86 93.937 123.176 91.4001 121.89C84.0801 118.29 80.1901 111.98 80.1501 103.65C80.1501 99.91 80.1501 96.17 80.1501 92.43V82.73H80.2601C80.2501 82.55 80.2501 82.38 80.2501 82.2ZM17.8301 102.74C15.9629 101.862 14.3216 100.569 13.0319 98.9584C11.7423 97.3481 10.8385 95.4638 10.3901 93.45C8.39007 85.83 9.90007 79.59 14.8101 74.91C17.744 72.1489 21.6529 70.6637 25.6801 70.78H25.7301L47.3201 70.85C54.5067 70.85 61.6967 70.87 68.8901 70.91C69.8049 70.8503 70.7218 70.9891 71.578 71.3169C72.4342 71.6446 73.2094 72.1536 73.8505 72.809C74.4916 73.4643 74.9835 74.2505 75.2924 75.1137C75.6012 75.9769 75.7199 76.8967 75.6401 77.81C75.5801 80.14 75.6401 82.55 75.6401 84.89C75.6401 85.89 75.6401 86.89 75.6401 87.89V90.89C75.6401 93.26 75.6401 95.63 75.6401 98C75.6998 98.8849 75.5704 99.7723 75.2607 100.603C74.9509 101.434 74.4679 102.19 73.8436 102.82C73.2193 103.45 72.4681 103.94 71.6399 104.257C70.8117 104.574 69.9255 104.712 69.0401 104.66H54.5301C45.0201 104.66 35.1801 104.66 25.5301 104.58C22.8661 104.488 20.2477 103.863 17.8301 102.74V102.74ZM183.61 301.05V459.21C183.61 461.09 183.61 463.21 181.85 465C180.09 466.79 177.92 466.81 176.04 466.81H144.89C139.89 466.81 137.65 464.57 137.65 459.55V306.05C137.65 263.13 137.65 220.21 137.65 177.29C137.57 176.362 137.693 175.428 138.011 174.552C138.329 173.676 138.834 172.881 139.491 172.22C140.148 171.559 140.94 171.05 141.814 170.727C142.688 170.404 143.622 170.275 144.55 170.35C155.02 170.42 165.81 170.42 176.64 170.35C177.579 170.273 178.523 170.401 179.408 170.725C180.292 171.05 181.095 171.563 181.761 172.229C182.427 172.895 182.94 173.698 183.265 174.583C183.589 175.467 183.717 176.411 183.64 177.35C183.6 218.59 183.59 259.823 183.61 301.05ZM138.82 165.89H126.25C105.79 165.89 84.6301 165.89 63.8201 165.89C62.2771 165.941 60.7494 165.571 59.4003 164.821C58.0511 164.07 56.9311 162.967 56.1601 161.63C49.9334 151.55 43.6901 141.483 37.4301 131.43L29.7701 119.08C29.4701 118.59 29.2101 118.08 28.9001 117.51C28.7501 117.24 28.6001 116.94 28.4101 116.59L24.5801 109.59L33.3601 109.19C33.9101 109.19 34.3601 109.13 34.8001 109.13H43.0001C52.1134 109.13 61.2234 109.13 70.3301 109.13C71.8828 109.047 73.4215 109.461 74.7233 110.312C76.025 111.162 77.0221 112.405 77.5701 113.86C79.1075 117.509 81.5413 120.711 84.646 123.169C87.7506 125.627 91.4255 127.261 95.3301 127.92C99.1929 128.622 103.171 128.335 106.893 127.087C110.615 125.838 113.961 123.669 116.62 120.78C118.08 119.045 119.332 117.146 120.35 115.12L121.43 113.21C122.061 111.966 123.028 110.925 124.221 110.203C125.414 109.482 126.786 109.11 128.18 109.13C147.98 109.13 169.18 109.13 192.95 109.13C194.483 109.055 196.001 109.469 197.284 110.312C198.567 111.155 199.55 112.383 200.09 113.82C201.474 117.135 203.601 120.087 206.308 122.449C209.015 124.811 212.228 126.518 215.7 127.44C219.216 128.387 222.902 128.512 226.475 127.806C230.047 127.101 233.408 125.583 236.3 123.37C239.697 120.859 242.323 117.447 243.88 113.52C244.336 112.21 245.197 111.08 246.339 110.292C247.481 109.505 248.844 109.101 250.23 109.14H273.5H286.81C287.384 109.148 287.957 109.209 288.52 109.32L288.98 109.4L296.47 110.54L291.53 118.54C290.53 120.15 289.59 121.68 288.62 123.2L274.62 145.26L267.91 155.8C266.59 157.85 265.24 159.97 263.99 162.06C263.273 163.297 262.23 164.313 260.974 164.995C259.718 165.678 258.298 166.001 256.87 165.93C217.53 165.897 178.18 165.883 138.82 165.89ZM304.24 321.06C304.24 326.11 301.96 328.36 296.84 328.36H234.1C221.34 328.36 208.15 328.36 195.18 328.36H195.06C194.122 328.401 193.186 328.253 192.306 327.925C191.426 327.597 190.622 327.095 189.94 326.45C189.294 325.744 188.796 324.916 188.476 324.014C188.157 323.112 188.022 322.155 188.08 321.2C188.15 315.2 188.15 308.62 188.08 300.56C188.026 299.647 188.16 298.732 188.473 297.872C188.786 297.012 189.272 296.225 189.9 295.56C190.568 294.932 191.353 294.443 192.212 294.122C193.07 293.801 193.984 293.654 194.9 293.69C225.14 293.69 255.37 293.69 285.59 293.69H297C302 293.69 304.27 295.92 304.27 300.93L304.24 321.06ZM460.54 425.58C456.564 429.569 451.172 431.823 445.54 431.85H445.46C428.28 431.78 410.92 431.75 393.71 431.75H362.59H329.86C327.075 431.814 324.305 431.313 321.719 430.277C319.132 429.241 316.782 427.692 314.811 425.723C312.84 423.754 311.289 421.405 310.25 418.82C309.212 416.235 308.709 413.465 308.77 410.68C308.77 395.78 308.77 380.877 308.77 365.97C308.77 320.43 308.77 273.34 308.69 227.02C308.615 224.145 309.125 221.285 310.189 218.614C311.253 215.942 312.85 213.515 314.881 211.48C316.913 209.444 319.337 207.844 322.007 206.774C324.676 205.705 327.535 205.19 330.41 205.26H330.47C346.47 205.26 362.83 205.26 378.61 205.26H444.9C454.9 205.26 462.85 210.8 465.7 219.72C466.331 221.78 466.641 223.925 466.62 226.08C466.66 250.7 466.66 275.327 466.62 299.96V318.43C466.62 326.91 466.62 335.39 466.62 343.87C466.62 365.74 466.62 388.35 466.71 410.57C466.736 413.357 466.204 416.121 465.144 418.699C464.084 421.277 462.519 423.617 460.54 425.58V425.58Z" fill="#E6E6EA" stroke="#E6E6EA" stroke-width="10" stroke-miterlimit="10"/>
    <path d="M434.26 227.12H341.26C338.59 227.12 338.09 227.62 338.09 230.28C338.09 254.54 338.09 278.797 338.09 303.05C338.09 305.56 338.84 306.05 340.94 306.05C362.98 306.017 385 306 407 306C409.05 306 411.16 305.94 413.2 305.89C415.24 305.84 417.62 305.77 419.85 305.77C422.39 305.77 424.93 305.83 427.39 305.88C429.85 305.93 432.11 305.98 434.47 305.98C435.277 306.08 436.094 305.896 436.78 305.46C437.248 304.712 437.449 303.827 437.35 302.95V230.17C437.36 227.67 436.81 227.13 434.26 227.12ZM432.83 279V293.7C432.83 295.7 432.83 297.82 431.08 299.63C429.33 301.44 427.08 301.49 425.14 301.49H418.2C395.78 301.49 372.59 301.49 349.78 301.49C348.812 301.583 347.836 301.462 346.92 301.136C346.004 300.809 345.171 300.285 344.48 299.601C343.789 298.917 343.257 298.089 342.922 297.177C342.587 296.264 342.456 295.289 342.54 294.32C342.59 277.81 342.6 260.04 342.54 238.4C342.465 237.484 342.589 236.563 342.905 235.701C343.221 234.838 343.72 234.054 344.369 233.404C345.018 232.753 345.8 232.251 346.662 231.933C347.524 231.615 348.444 231.487 349.36 231.56C359.16 231.56 369.13 231.56 378.77 231.56H387.77H396.27C406.183 231.56 416.097 231.56 426.01 231.56C426.925 231.512 427.84 231.65 428.699 231.967C429.559 232.283 430.345 232.771 431.01 233.4C431.642 234.065 432.133 234.851 432.454 235.71C432.775 236.569 432.92 237.484 432.88 238.4C432.833 251.96 432.817 265.493 432.83 279Z" fill="#E6E6EA" stroke="#E6E6EA" stroke-width="10" stroke-miterlimit="10"/>
    <path d="M359.81 345.93V335.05C359.81 330.3 357.17 327.44 352.42 327.37C345.4 327.257 338.377 327.257 331.35 327.37C327.04 327.43 324.24 330.51 324.24 334.83C324.24 342.19 324.24 349.56 324.24 356.92C324.24 361.52 327.14 364.5 331.74 364.51C338.7 364.51 345.67 364.51 352.65 364.51C353.601 364.532 354.546 364.36 355.428 364.005C356.31 363.65 357.11 363.119 357.78 362.444C358.45 361.77 358.976 360.966 359.325 360.081C359.674 359.197 359.839 358.25 359.81 357.3C359.83 353.52 359.81 349.72 359.81 345.93ZM354.81 349.32C354.81 351.97 354.81 354.63 354.81 357.32C354.849 357.619 354.82 357.922 354.726 358.208C354.631 358.494 354.473 358.755 354.263 358.971C354.054 359.188 353.798 359.354 353.515 359.458C353.232 359.561 352.93 359.6 352.63 359.57C345.7 359.57 338.68 359.57 331.76 359.57C330.25 359.57 329.25 359.13 329.25 356.98V351.36C329.25 345.867 329.25 340.377 329.25 334.89C329.25 332.46 330.84 332.43 331.45 332.42C335.09 332.36 338.75 332.33 342.38 332.33C345.73 332.33 349.07 332.33 352.38 332.41C354.05 332.41 354.83 332.71 354.84 335.1L354.81 349.32Z" fill="#E6E6EA" stroke="#E6E6EA" stroke-width="4" stroke-miterlimit="10"/>
    <path d="M359.81 345.93V335.05C359.81 330.3 357.17 327.44 352.42 327.37C345.4 327.257 338.377 327.257 331.35 327.37C327.04 327.43 324.24 330.51 324.24 334.83C324.24 342.19 324.24 349.56 324.24 356.92C324.24 361.52 327.14 364.5 331.74 364.51C338.7 364.51 345.67 364.51 352.65 364.51C353.601 364.532 354.546 364.36 355.428 364.005C356.31 363.65 357.11 363.119 357.78 362.444C358.45 361.77 358.976 360.966 359.325 360.081C359.674 359.197 359.839 358.25 359.81 357.3C359.83 353.52 359.81 349.72 359.81 345.93ZM354.81 349.32C354.81 351.97 354.81 354.63 354.81 357.32C354.849 357.619 354.82 357.922 354.726 358.208C354.631 358.494 354.473 358.755 354.263 358.971C354.054 359.188 353.798 359.354 353.515 359.458C353.232 359.561 352.93 359.6 352.63 359.57C345.7 359.57 338.68 359.57 331.76 359.57C330.25 359.57 329.25 359.13 329.25 356.98V351.36C329.25 345.867 329.25 340.377 329.25 334.89C329.25 332.46 330.84 332.43 331.45 332.42C335.09 332.36 338.75 332.33 342.38 332.33C345.73 332.33 349.07 332.33 352.38 332.41C354.05 332.41 354.83 332.71 354.84 335.1L354.81 349.32Z" fill="#E6E6EA" stroke="#E6E6EA" stroke-width="4" stroke-miterlimit="10"/>
    <path d="M359.8 382.6C359.825 380.817 359.152 379.095 357.924 377.802C356.696 376.509 355.012 375.748 353.23 375.68C345.803 375.56 338.383 375.56 330.97 375.68C329.185 375.709 327.483 376.434 326.225 377.7C324.968 378.967 324.255 380.675 324.24 382.46C324.19 390.28 324.18 398.1 324.24 405.92C324.248 406.829 324.436 407.727 324.792 408.562C325.149 409.398 325.668 410.155 326.319 410.789C326.97 411.423 327.74 411.922 328.584 412.257C329.429 412.592 330.332 412.756 331.24 412.74H352.66C353.613 412.785 354.565 412.629 355.454 412.283C356.343 411.936 357.149 411.407 357.82 410.729C358.491 410.051 359.013 409.24 359.35 408.348C359.688 407.456 359.834 406.502 359.78 405.55C359.78 401.82 359.78 398.07 359.78 394.33C359.81 390.42 359.84 386.5 359.8 382.6ZM354.8 390.67V397.48C354.8 400.147 354.8 402.813 354.8 405.48C354.8 407.02 354.16 407.67 352.67 407.68H331.26C331.004 407.695 330.748 407.658 330.508 407.571C330.267 407.484 330.046 407.349 329.859 407.174C329.672 406.999 329.523 406.788 329.42 406.553C329.317 406.319 329.262 406.066 329.26 405.81C329.19 398.64 329.18 391 329.26 382.43C329.268 381.954 329.46 381.5 329.795 381.162C330.131 380.825 330.584 380.63 331.06 380.62C334.58 380.57 338.17 380.54 341.78 380.54C345.547 380.54 349.343 380.57 353.17 380.63C353.651 380.683 354.093 380.922 354.401 381.295C354.709 381.669 354.859 382.147 354.82 382.63C354.83 385.32 354.82 388 354.81 390.67H354.8Z" fill="#E6E6EA" stroke="#E6E6EA" stroke-width="4" stroke-miterlimit="10"/>
    <path d="M359.8 382.6C359.825 380.817 359.152 379.095 357.924 377.802C356.696 376.509 355.012 375.748 353.23 375.68C345.803 375.56 338.383 375.56 330.97 375.68C329.185 375.709 327.483 376.434 326.225 377.7C324.968 378.967 324.255 380.675 324.24 382.46C324.19 390.28 324.18 398.1 324.24 405.92C324.248 406.829 324.436 407.727 324.792 408.562C325.149 409.398 325.668 410.155 326.319 410.789C326.97 411.423 327.74 411.922 328.584 412.257C329.429 412.592 330.332 412.756 331.24 412.74H352.66C353.613 412.785 354.565 412.629 355.454 412.283C356.343 411.936 357.149 411.407 357.82 410.729C358.491 410.051 359.013 409.24 359.35 408.348C359.688 407.456 359.834 406.502 359.78 405.55C359.78 401.82 359.78 398.07 359.78 394.33C359.81 390.42 359.84 386.5 359.8 382.6ZM354.8 390.67V397.48C354.8 400.147 354.8 402.813 354.8 405.48C354.8 407.02 354.16 407.67 352.67 407.68H331.26C331.004 407.695 330.748 407.658 330.508 407.571C330.267 407.484 330.046 407.349 329.859 407.174C329.672 406.999 329.523 406.788 329.42 406.553C329.317 406.319 329.262 406.066 329.26 405.81C329.19 398.64 329.18 391 329.26 382.43C329.268 381.954 329.46 381.5 329.795 381.162C330.131 380.825 330.584 380.63 331.06 380.62C334.58 380.57 338.17 380.54 341.78 380.54C345.547 380.54 349.343 380.57 353.17 380.63C353.651 380.683 354.093 380.922 354.401 381.295C354.709 381.669 354.859 382.147 354.82 382.63C354.83 385.32 354.82 388 354.81 390.67H354.8Z" fill="#E6E6EA" stroke="#E6E6EA" stroke-width="4" stroke-miterlimit="10"/>
    <path d="M405.61 336.24C405.604 335.165 405.517 334.092 405.35 333.03C405.006 331.328 404.043 329.814 402.645 328.783C401.248 327.752 399.518 327.277 397.79 327.45C395.66 327.64 393.51 327.53 391.37 327.52C386.28 327.52 381.19 327.31 376.11 327.52C374.785 327.566 373.511 328.038 372.477 328.867C371.442 329.696 370.703 330.837 370.37 332.12C370.014 333.307 369.835 334.541 369.84 335.78C369.84 338.44 370.06 341.08 370.07 343.78C370.07 345.95 369.88 348.13 369.82 350.3C369.82 351.02 370.05 351.75 370.05 352.47C369.93 354.311 369.913 356.157 370 358C370.48 362.18 373.24 364.53 377.46 364.56C380.86 364.56 384.26 364.56 387.66 364.56C391.06 364.56 394.66 364.56 398.19 364.56C401.72 364.56 404.07 362.94 405.08 359.82C405.476 358.405 405.658 356.939 405.62 355.47C405.66 349 405.64 342.64 405.61 336.24ZM400.61 355.39C400.642 356.353 400.541 357.315 400.31 358.25C400.1 358.9 399.9 359.51 398.13 359.53C395.74 359.53 393.35 359.53 390.95 359.53H377.48C375.48 359.53 375.11 358.83 374.95 357.41C374.881 356.515 374.881 355.615 374.95 354.72C374.95 353.95 375.03 353.18 375.03 352.41C375.025 351.783 374.965 351.157 374.85 350.54C374.85 350.44 374.85 350.34 374.8 350.24C374.8 349.43 374.87 348.62 374.91 347.81C374.98 346.49 375.05 345.12 375.05 343.71C375.05 342.3 374.99 340.93 374.93 339.6C374.87 338.27 374.82 337.01 374.82 335.79C374.814 335.06 374.912 334.333 375.11 333.63C375.47 332.53 375.94 332.51 376.29 332.5C379.64 332.37 382.97 332.41 386.49 332.5C388.1 332.5 389.72 332.5 391.33 332.5H392.93C394.694 332.562 396.46 332.525 398.22 332.39C398.694 332.328 399.175 332.439 399.575 332.701C399.975 332.963 400.268 333.36 400.4 333.82C400.527 334.614 400.591 335.416 400.59 336.22C400.64 342.68 400.66 349 400.6 355.39H400.61Z" fill="#E6E6EA" stroke="#E6E6EA" stroke-width="4" stroke-miterlimit="10"/>
    <path d="M405.61 336.24C405.604 335.165 405.517 334.092 405.35 333.03C405.006 331.328 404.043 329.814 402.645 328.783C401.248 327.752 399.518 327.277 397.79 327.45C395.66 327.64 393.51 327.53 391.37 327.52C386.28 327.52 381.19 327.31 376.11 327.52C374.785 327.566 373.511 328.038 372.477 328.867C371.442 329.696 370.703 330.837 370.37 332.12C370.014 333.307 369.835 334.541 369.84 335.78C369.84 338.44 370.06 341.08 370.07 343.78C370.07 345.95 369.88 348.13 369.82 350.3C369.82 351.02 370.05 351.75 370.05 352.47C369.93 354.311 369.913 356.157 370 358C370.48 362.18 373.24 364.53 377.46 364.56C380.86 364.56 384.26 364.56 387.66 364.56C391.06 364.56 394.66 364.56 398.19 364.56C401.72 364.56 404.07 362.94 405.08 359.82C405.476 358.405 405.658 356.939 405.62 355.47C405.66 349 405.64 342.64 405.61 336.24ZM400.61 355.39C400.642 356.353 400.541 357.315 400.31 358.25C400.1 358.9 399.9 359.51 398.13 359.53C395.74 359.53 393.35 359.53 390.95 359.53H377.48C375.48 359.53 375.11 358.83 374.95 357.41C374.881 356.515 374.881 355.615 374.95 354.72C374.95 353.95 375.03 353.18 375.03 352.41C375.025 351.783 374.965 351.157 374.85 350.54C374.85 350.44 374.85 350.34 374.8 350.24C374.8 349.43 374.87 348.62 374.91 347.81C374.98 346.49 375.05 345.12 375.05 343.71C375.05 342.3 374.99 340.93 374.93 339.6C374.87 338.27 374.82 337.01 374.82 335.79C374.814 335.06 374.912 334.333 375.11 333.63C375.47 332.53 375.94 332.51 376.29 332.5C379.64 332.37 382.97 332.41 386.49 332.5C388.1 332.5 389.72 332.5 391.33 332.5H392.93C394.694 332.562 396.46 332.525 398.22 332.39C398.694 332.328 399.175 332.439 399.575 332.701C399.975 332.963 400.268 333.36 400.4 333.82C400.527 334.614 400.591 335.416 400.59 336.22C400.64 342.68 400.66 349 400.6 355.39H400.61Z" fill="#E6E6EA" stroke="#E6E6EA" stroke-width="4" stroke-miterlimit="10"/>
    <path d="M405.45 382.59C405.28 377.79 402.39 375.64 397.55 375.59H378.18C372.62 375.59 369.82 378.37 369.82 383.95C369.82 390.617 369.82 397.303 369.82 404.01C369.815 404.972 369.895 405.932 370.06 406.88C370.308 408.521 371.145 410.015 372.415 411.082C373.685 412.15 375.301 412.718 376.96 412.68H398.38C402.23 412.68 405.21 410.36 405.38 406.48C405.64 398.56 405.75 390.56 405.45 382.59ZM400.36 406.35C400.36 406.76 400.31 407.72 398.36 407.73H377C376.758 407.752 376.514 407.726 376.283 407.653C376.051 407.58 375.836 407.463 375.65 407.306C375.464 407.15 375.311 406.959 375.2 406.743C375.088 406.528 375.02 406.292 375 406.05C374.891 405.389 374.837 404.72 374.84 404.05C374.84 397.383 374.84 390.717 374.84 384.05C374.84 381.25 375.4 380.68 378.2 380.68H397.57C400.4 380.68 400.42 381.36 400.48 382.83C400.71 389.76 400.68 397.25 400.36 406.35V406.35Z" fill="#E6E6EA" stroke="#E6E6EA" stroke-width="4" stroke-miterlimit="10"/>
    <path d="M405.45 382.59C405.28 377.79 402.39 375.64 397.55 375.59H378.18C372.62 375.59 369.82 378.37 369.82 383.95C369.82 390.617 369.82 397.303 369.82 404.01C369.815 404.972 369.895 405.932 370.06 406.88C370.308 408.521 371.145 410.015 372.415 411.082C373.685 412.15 375.301 412.718 376.96 412.68H398.38C402.23 412.68 405.21 410.36 405.38 406.48C405.64 398.56 405.75 390.56 405.45 382.59ZM400.36 406.35C400.36 406.76 400.31 407.72 398.36 407.73H377C376.758 407.752 376.514 407.726 376.283 407.653C376.051 407.58 375.836 407.463 375.65 407.306C375.464 407.15 375.311 406.959 375.2 406.743C375.088 406.528 375.02 406.292 375 406.05C374.891 405.389 374.837 404.72 374.84 404.05C374.84 397.383 374.84 390.717 374.84 384.05C374.84 381.25 375.4 380.68 378.2 380.68H397.57C400.4 380.68 400.42 381.36 400.48 382.83C400.71 389.76 400.68 397.25 400.36 406.35V406.35Z" fill="#E6E6EA" stroke="#E6E6EA" stroke-width="4" stroke-miterlimit="10"/>
    <path d="M451.22 335.46C451.22 330.27 448.51 327.4 443.35 327.34C436.723 327.273 430.097 327.273 423.47 327.34C418.31 327.41 415.57 330.34 415.57 335.47C415.57 342.49 415.57 349.513 415.57 356.54C415.57 361.68 418.39 364.54 423.57 364.54C430.31 364.54 437.05 364.54 443.79 364.54C444.772 364.6 445.757 364.453 446.678 364.107C447.6 363.761 448.438 363.225 449.138 362.533C449.838 361.841 450.385 361.01 450.742 360.092C451.099 359.175 451.258 358.193 451.21 357.21C451.21 354.75 451.21 352.3 451.21 349.84C451.21 348.62 451.21 347.4 451.21 346.16C451.21 344.41 451.21 342.65 451.21 340.9C451.21 339.15 451.21 337.27 451.22 335.46ZM446.22 339.09V340.9C446.22 342.65 446.22 344.4 446.22 346.16V350C446.22 352.4 446.22 354.78 446.22 357.18C446.22 358.81 445.46 359.55 443.79 359.55C437.06 359.55 430.33 359.55 423.6 359.55C421.18 359.55 420.6 358.96 420.6 356.55C420.6 349.53 420.6 342.507 420.6 335.48C420.6 332.84 421.34 332.38 423.6 332.35C430.15 332.28 436.8 332.28 443.37 332.35C445.59 332.35 446.29 332.81 446.29 335.45C446.21 336.66 446.21 337.87 446.22 339.09Z" fill="#E6E6EA" stroke="#E6E6EA" stroke-width="4" stroke-miterlimit="10"/>
    <path d="M451.22 335.46C451.22 330.27 448.51 327.4 443.35 327.34C436.723 327.273 430.097 327.273 423.47 327.34C418.31 327.41 415.57 330.34 415.57 335.47C415.57 342.49 415.57 349.513 415.57 356.54C415.57 361.68 418.39 364.54 423.57 364.54C430.31 364.54 437.05 364.54 443.79 364.54C444.772 364.6 445.757 364.453 446.678 364.107C447.6 363.761 448.438 363.225 449.138 362.533C449.838 361.841 450.385 361.01 450.742 360.092C451.099 359.175 451.258 358.193 451.21 357.21C451.21 354.75 451.21 352.3 451.21 349.84C451.21 348.62 451.21 347.4 451.21 346.16C451.21 344.41 451.21 342.65 451.21 340.9C451.21 339.15 451.21 337.27 451.22 335.46ZM446.22 339.09V340.9C446.22 342.65 446.22 344.4 446.22 346.16V350C446.22 352.4 446.22 354.78 446.22 357.18C446.22 358.81 445.46 359.55 443.79 359.55C437.06 359.55 430.33 359.55 423.6 359.55C421.18 359.55 420.6 358.96 420.6 356.55C420.6 349.53 420.6 342.507 420.6 335.48C420.6 332.84 421.34 332.38 423.6 332.35C430.15 332.28 436.8 332.28 443.37 332.35C445.59 332.35 446.29 332.81 446.29 335.45C446.21 336.66 446.21 337.87 446.22 339.09Z" fill="#E6E6EA" stroke="#E6E6EA" stroke-width="4" stroke-miterlimit="10"/>
    <path d="M451.2 382.68C451.211 381.758 451.037 380.843 450.689 379.989C450.341 379.134 449.826 378.358 449.174 377.706C448.522 377.054 447.746 376.539 446.891 376.191C446.037 375.843 445.122 375.669 444.2 375.68C437.06 375.633 429.923 375.633 422.79 375.68C421.856 375.656 420.926 375.819 420.056 376.16C419.186 376.501 418.393 377.013 417.724 377.665C417.054 378.318 416.523 379.098 416.16 379.959C415.797 380.82 415.61 381.745 415.61 382.68C415.517 390.333 415.517 397.98 415.61 405.62C415.61 409.85 418.67 412.68 422.89 412.7H443.79C448.26 412.7 451.19 409.78 451.21 405.25C451.21 403.65 451.21 402.05 451.21 400.44V394.03C451.21 392.17 451.21 390.3 451.21 388.43C451.21 386.56 451.24 384.61 451.2 382.68ZM446.2 386.63C446.2 387.24 446.2 387.85 446.2 388.46V391.26C446.2 392.2 446.2 393.14 446.2 394.06V400.47C446.2 402.07 446.2 403.66 446.2 405.26C446.2 407.02 445.49 407.73 443.78 407.73H422.91C420.63 407.73 420.61 406.13 420.6 405.59C420.52 398.02 420.52 390.35 420.6 382.77C420.582 382.478 420.628 382.185 420.736 381.913C420.843 381.64 421.009 381.395 421.222 381.193C421.434 380.992 421.689 380.84 421.967 380.748C422.244 380.656 422.539 380.626 422.83 380.66C426.51 380.66 430.3 380.61 434.18 380.61C437.46 380.61 440.793 380.61 444.18 380.61C444.458 380.6 444.734 380.649 444.991 380.755C445.247 380.861 445.478 381.021 445.668 381.224C445.858 381.427 446.001 381.668 446.09 381.931C446.178 382.195 446.209 382.474 446.18 382.75C446.23 384.07 446.22 385.35 446.22 386.63H446.2Z" fill="#E6E6EA" stroke="#E6E6EA" stroke-width="4" stroke-miterlimit="10"/>
    <path d="M451.2 382.68C451.211 381.758 451.037 380.843 450.689 379.989C450.341 379.134 449.826 378.358 449.174 377.706C448.522 377.054 447.746 376.539 446.891 376.191C446.037 375.843 445.122 375.669 444.2 375.68C437.06 375.633 429.923 375.633 422.79 375.68C421.856 375.656 420.926 375.819 420.056 376.16C419.186 376.501 418.393 377.013 417.724 377.665C417.054 378.318 416.523 379.098 416.16 379.959C415.797 380.82 415.61 381.745 415.61 382.68C415.517 390.333 415.517 397.98 415.61 405.62C415.61 409.85 418.67 412.68 422.89 412.7H443.79C448.26 412.7 451.19 409.78 451.21 405.25C451.21 403.65 451.21 402.05 451.21 400.44V394.03C451.21 392.17 451.21 390.3 451.21 388.43C451.21 386.56 451.24 384.61 451.2 382.68ZM446.2 386.63C446.2 387.24 446.2 387.85 446.2 388.46V391.26C446.2 392.2 446.2 393.14 446.2 394.06V400.47C446.2 402.07 446.2 403.66 446.2 405.26C446.2 407.02 445.49 407.73 443.78 407.73H422.91C420.63 407.73 420.61 406.13 420.6 405.59C420.52 398.02 420.52 390.35 420.6 382.77C420.582 382.478 420.628 382.185 420.736 381.913C420.843 381.64 421.009 381.395 421.222 381.193C421.434 380.992 421.689 380.84 421.967 380.748C422.244 380.656 422.539 380.626 422.83 380.66C426.51 380.66 430.3 380.61 434.18 380.61C437.46 380.61 440.793 380.61 444.18 380.61C444.458 380.6 444.734 380.649 444.991 380.755C445.247 380.861 445.478 381.021 445.668 381.224C445.858 381.427 446.001 381.668 446.09 381.931C446.178 382.195 446.209 382.474 446.18 382.75C446.23 384.07 446.22 385.35 446.22 386.63H446.2Z" fill="#E6E6EA" stroke="#E6E6EA" stroke-width="4" stroke-miterlimit="10"/>
</svg>
