<svg xmlns="http://www.w3.org/2000/svg" viewBox="0 0 476.18 476.19"><defs><style>.cls-1,.cls-2{stroke:#000;stroke-miterlimit:10;}.cls-1{stroke-width:10px;}.cls-2{stroke-width:4px;}</style></defs><title>2Ресурс 1</title><g id="Слой_2" data-name="Слой 2"><g id="Capa_1" data-name="Capa 1"><path class="cls-1" d="M468.49,214.48a27,27,0,0,0-9.31-10.13A24.22,24.22,0,0,0,446.35,201q-46.87,0-93.75,0H328.79c-.82,0-1.58,0-2.26.06-12.27,1-22.26,11.92-22.28,24.31q0,19.53,0,39.08v17.38c0,5.2-2.24,7.41-7.43,7.41H195.6c-5.24,0-7.48-2.24-7.48-7.49q0-52,0-104.1c0-5,2.26-7.28,7.32-7.28h16c16.6,0,33.76,0,50.65,0a2.93,2.93,0,0,0,3-1.68c4.75-7.58,9.49-15.08,15.14-24,6.79-10.68,13.43-21.13,20.18-31.66.23-.36.45-.73.67-1.1a14.43,14.43,0,0,1,4.63-5.38c6.36-3.94,9.79-9.29,10.5-16.37.81-8.21-1.74-14.64-7.82-19.66l-1.37-1.09a24.46,24.46,0,0,1-6.3-6.52c-4.86-7.94-10-15.95-14.92-23.69q-3-4.76-6.07-9.52Q272.36,18.07,265,6.37A2.33,2.33,0,0,0,262.55,5c-3.93.09-7.91.07-11.76,0l-5.13,0H203.59q-73,0-145.93,0A2.22,2.22,0,0,0,55.43,6.3l-1,1.6-2,3.16-4.78,7.52q-15,23.6-30,47.19a12.59,12.59,0,0,1-3.51,3.56A18.46,18.46,0,0,0,8.54,75.1C5.06,80.75,4.16,86.85,5.78,93.74c1.4,5.93,4.34,10.12,9,12.82a11.41,11.41,0,0,1,4,3.55c3.07,4.82,6.11,9.75,9,14.52l7.92,12.77c6.19,10,12.6,20.3,18.83,30.51a4.43,4.43,0,0,0,4.58,2.54c14.22-.1,28.66-.1,42.64-.1q12.12,0,24.23,0c4.39,0,7.11,2.71,7.11,7.08,0,33.41-.06,67.29,0,100.69,0,8.14,0,16.28.1,24.42q.06,9.63.09,19.26c0,2.3,0,4.61-.09,6.83-.05,1.9-.09,3.8-.1,5.7q0,10.64,0,21.26v38.8q0,37,0,74a3.21,3.21,0,0,0,.79,2.23,2.54,2.54,0,0,0,2,.61c9.48-.09,19.12-.08,28.44-.08,7.19,0,14.39,0,21.58,0a3.85,3.85,0,0,0,1.72-.52c.17-.1.56-.34.56-2.35q0-27.48,0-55,0-36.64,0-73.29a7.18,7.18,0,0,1,1.9-5.22,7.1,7.1,0,0,1,5.19-1.88q44.47,0,89,0h12.71c5.1,0,7.38,2.26,7.38,7.32v15.27q0,26.73,0,53.44a47.08,47.08,0,0,0,.38,6.83c1.76,11.53,12.35,20.55,24.12,20.56h10.46c35.32,0,71.83,0,107.74-.07a22.51,22.51,0,0,0,7.57-1.42c10.73-4,16.64-12.55,16.64-24.18V300.15q0-37.27,0-74.57A22.22,22.22,0,0,0,468.49,214.48ZM311.71,90.88c-1.24,7.76-6.33,12.67-14,13.46a71.69,71.69,0,0,1-7.57.33l-2.84,0-2.48,0c-6,0-12.06,0-18.09-.07l-9,0h-1c-1.49,0-3,0-4.47,0a6.51,6.51,0,0,1-4.84-1.78,6.3,6.3,0,0,1-1.8-4.69c0-7.07,0-14,0-20.69a6.26,6.26,0,0,1,1.77-4.61,6.55,6.55,0,0,1,4.81-1.81H261v-.16H272.7c6.63,0,13.48,0,20.22,0h.39a24.78,24.78,0,0,1,7.26.8h0C308.44,74,313.12,82.14,311.71,90.88ZM27.8,58.49c.46-.73.89-1.44,1.31-2.13.77-1.26,1.51-2.47,2.27-3.66l9.46-14.9q7.65-12,15.28-24.08A8.73,8.73,0,0,1,64,9.31c62.74.06,127.63.06,192.89,0h0a8.3,8.3,0,0,1,7.31,4.44L271,24.44l4.67,7.38q5.44,8.58,10.9,17.17l5,7.9c.21.34.39.65.62,1l4.56,7.8-8.2.43-.83,0c-.56,0-1,.07-1.45.07h-9.7c-8.61,0-17.22,0-25.83,0a7,7,0,0,1-6.89-4.56,23.18,23.18,0,0,0-16.32-13.9,23.85,23.85,0,0,0-27.57,14,6.77,6.77,0,0,1-6.6,4.44h-.06c-24.38,0-45.75,0-65.28,0a6.86,6.86,0,0,1-6.74-4.7c-3.07-8.06-12.06-14.25-20.92-14.42a23.26,23.26,0,0,0-18.61,7.87,27.87,27.87,0,0,0-3.49,5.47l-1,1.9a7,7,0,0,1-6.45,3.86q-12.26,0-24.57,0H33.87a12.1,12.1,0,0,1-1.57-.12l-.69-.07-8.06-.72Zm213.37,45.64a20,20,0,0,1-4.73,12.93A19,19,0,0,1,203,104.87c0-2.88,0-5.75-.07-8.63q0-6-.08-11.94c0-4.57,0-9.21,0-13.79a19.05,19.05,0,0,1,17.25-18.75A19.25,19.25,0,0,1,240.8,67.64a32.25,32.25,0,0,1,.37,4.79c0,3.73,0,7.44,0,11.15v9C241.2,96.43,241.21,100.28,241.17,104.13Zm-42.83-6.49v.15a6.77,6.77,0,0,1-1.85,5,7.12,7.12,0,0,1-5.24,1.9c-7.57-.05-15.27,0-22.72,0H155.91c-7.47,0-14.95,0-22.43,0a35.08,35.08,0,0,0-3.56.24l-.8,0a6.25,6.25,0,0,1-4.39-1.62,6.53,6.53,0,0,1-2-5.1c.14-7.41.22-14.14.25-20.61a6.41,6.41,0,0,1,6.89-6.85c5.33.06,10.85.06,16.39,0,1.74,0,3.48-.08,5.22-.14,2.27-.08,4.61-.16,7-.15q9.06,0,18.14.15,7.48.07,15,.13a6.78,6.78,0,0,1,4.95,1.88,6.58,6.58,0,0,1,1.8,4.9C198.27,85.38,198.27,91.77,198.34,97.64ZM80.25,82.2c-.07-4.22-.13-8.59.14-13A18.69,18.69,0,0,1,97.27,51.79,19.25,19.25,0,0,1,117.67,65a15.2,15.2,0,0,1,.78,4.48c.13,9.84.21,18.57.25,26.7v1.86a82.37,82.37,0,0,1-.28,9.36,16.18,16.18,0,0,1-3.11,8,23.26,23.26,0,0,1-7.16,6.29,18.19,18.19,0,0,1-8.57,2.2,18.52,18.52,0,0,1-8.18-2c-7.32-3.6-11.21-9.91-11.25-18.24,0-3.74,0-7.48,0-11.22V82.73h.11C80.25,82.55,80.25,82.38,80.25,82.2ZM17.83,102.74a13.51,13.51,0,0,1-7.44-9.29c-2-7.62-.49-13.86,4.42-18.54a15.22,15.22,0,0,1,10.87-4.13h.05l21.59.07q10.78,0,21.57.06a6.36,6.36,0,0,1,6.75,6.9c-.06,2.33,0,4.74,0,7.08,0,1,0,2,0,3v3c0,2.37,0,4.74,0,7.11a6.25,6.25,0,0,1-6.6,6.66H54.53c-9.51,0-19.35,0-29-.08A19.91,19.91,0,0,1,17.83,102.74ZM183.61,301.05V459.21c0,1.88,0,4-1.76,5.79s-3.93,1.81-5.81,1.81H144.89c-5,0-7.24-2.24-7.24-7.26V306.05q0-64.38,0-128.76a6.41,6.41,0,0,1,6.9-6.94c10.47.07,21.26.07,32.09,0a6.49,6.49,0,0,1,7,7Q183.58,239.21,183.61,301.05ZM138.82,165.89H126.25c-20.46,0-41.62,0-62.43,0a8.52,8.52,0,0,1-7.66-4.26q-9.34-15.12-18.73-30.2l-7.66-12.35c-.3-.49-.56-1-.87-1.57-.15-.27-.3-.57-.49-.92l-3.83-7,8.78-.4c.55,0,1-.06,1.44-.06H43q13.67,0,27.33,0a7.32,7.32,0,0,1,7.24,4.73,23.52,23.52,0,0,0,17.76,14.06,23.28,23.28,0,0,0,21.29-7.14,29.07,29.07,0,0,0,3.73-5.66l1.08-1.91a7.45,7.45,0,0,1,6.75-4.08c19.8,0,41,0,64.77,0a7.25,7.25,0,0,1,7.14,4.69,23.43,23.43,0,0,0,15.61,13.62,23.74,23.74,0,0,0,20.6-4.07,22.62,22.62,0,0,0,7.58-9.85,6.53,6.53,0,0,1,6.35-4.38l23.27,0h13.31a9.54,9.54,0,0,1,1.71.18l.46.08,7.49,1.14-4.94,8c-1,1.61-1.94,3.14-2.91,4.66l-14,22.06-6.71,10.54c-1.32,2.05-2.67,4.17-3.92,6.26a7.78,7.78,0,0,1-7.12,3.87Q197.86,165.88,138.82,165.89ZM304.24,321.06c0,5.05-2.28,7.3-7.4,7.3H234.1c-12.76,0-25.95,0-38.92,0h-.12a7,7,0,0,1-5.12-1.91,7.13,7.13,0,0,1-1.86-5.25c.07-6,.07-12.58,0-20.64a6.71,6.71,0,0,1,1.82-5,6.9,6.9,0,0,1,5-1.87q45.36,0,90.69,0H297c5,0,7.27,2.23,7.27,7.24Zm156.3,104.52a21.32,21.32,0,0,1-15,6.27h-.08c-17.18-.07-34.54-.1-51.75-.1l-31.12,0H329.86a20.62,20.62,0,0,1-21.09-21.07q0-22.35,0-44.71c0-45.54,0-92.63-.08-138.95a21.21,21.21,0,0,1,21.72-21.76h.06c16,0,32.36,0,48.14,0h66.29c10,0,17.95,5.54,20.8,14.46a21,21,0,0,1,.92,6.36q.06,36.93,0,73.88v18.47q0,12.72,0,25.44c0,21.87,0,44.48.09,66.7A20.87,20.87,0,0,1,460.54,425.58Z"/><path class="cls-1" d="M434.26,227.12h-93c-2.67,0-3.17.5-3.17,3.16q0,36.39,0,72.77c0,2.51.75,3,2.85,3Q374,306,407,306c2.05,0,4.16-.06,6.2-.11s4.42-.12,6.65-.12c2.54,0,5.08.06,7.54.11s4.72.1,7.08.1a3.5,3.5,0,0,0,2.31-.52,3.91,3.91,0,0,0,.57-2.51V230.17C437.36,227.67,436.81,227.13,434.26,227.12ZM432.83,279V293.7c0,2,0,4.12-1.75,5.93s-4,1.86-5.94,1.86H418.2c-22.42,0-45.61,0-68.42,0h0a6.63,6.63,0,0,1-7.24-7.17c.05-16.51.06-34.28,0-55.92a6.34,6.34,0,0,1,6.82-6.84c9.8,0,19.77,0,29.41,0l9,0h8.5q14.87,0,29.74,0a6.76,6.76,0,0,1,5,1.84,6.83,6.83,0,0,1,1.87,5Q432.81,258.74,432.83,279Z"/><path class="cls-2" d="M359.81,345.93V335.05c0-4.75-2.64-7.61-7.39-7.68q-10.53-.17-21.07,0c-4.31.06-7.11,3.14-7.11,7.46,0,7.36,0,14.73,0,22.09,0,4.6,2.9,7.58,7.5,7.59q10.44,0,20.91,0a7,7,0,0,0,7.16-7.21C359.83,353.52,359.81,349.72,359.81,345.93Zm-5,3.39c0,2.65,0,5.31,0,8a2,2,0,0,1-2.18,2.25c-6.93,0-13.95,0-20.87,0h0c-1.51,0-2.51-.44-2.51-2.59v-5.62q0-8.24,0-16.47c0-2.43,1.59-2.46,2.2-2.47,3.64-.06,7.3-.09,10.93-.09,3.35,0,6.69,0,10,.08,1.67,0,2.45.3,2.46,2.69Z"/><path class="cls-2" d="M359.81,345.93V335.05c0-4.75-2.64-7.61-7.39-7.68q-10.53-.17-21.07,0c-4.31.06-7.11,3.14-7.11,7.46,0,7.36,0,14.73,0,22.09,0,4.6,2.9,7.58,7.5,7.59q10.44,0,20.91,0a7,7,0,0,0,7.16-7.21C359.83,353.52,359.81,349.72,359.81,345.93Zm-5,3.39c0,2.65,0,5.31,0,8a2,2,0,0,1-2.18,2.25c-6.93,0-13.95,0-20.87,0h0c-1.51,0-2.51-.44-2.51-2.59v-5.62q0-8.24,0-16.47c0-2.43,1.59-2.46,2.2-2.47,3.64-.06,7.3-.09,10.93-.09,3.35,0,6.69,0,10,.08,1.67,0,2.45.3,2.46,2.69Z"/><path class="cls-2" d="M359.8,382.6a6.83,6.83,0,0,0-6.57-6.92q-11.14-.18-22.26,0a6.84,6.84,0,0,0-6.73,6.78c-.05,7.82-.06,15.64,0,23.46a6.88,6.88,0,0,0,7,6.82h21.42a6.81,6.81,0,0,0,7.12-7.19c0-3.73,0-7.48,0-11.22C359.81,390.42,359.84,386.5,359.8,382.6Zm-5,8.07v6.81q0,4,0,8c0,1.54-.64,2.19-2.13,2.2H331.26a1.89,1.89,0,0,1-2-1.87c-.07-7.17-.08-14.81,0-23.38a1.84,1.84,0,0,1,1.8-1.81c3.52-.05,7.11-.08,10.72-.08q5.65,0,11.39.09a1.86,1.86,0,0,1,1.65,2C354.83,385.32,354.82,388,354.81,390.67Z"/><path class="cls-2" d="M359.8,382.6a6.83,6.83,0,0,0-6.57-6.92q-11.14-.18-22.26,0a6.84,6.84,0,0,0-6.73,6.78c-.05,7.82-.06,15.64,0,23.46a6.88,6.88,0,0,0,7,6.82h21.42a6.81,6.81,0,0,0,7.12-7.19c0-3.73,0-7.48,0-11.22C359.81,390.42,359.84,386.5,359.8,382.6Zm-5,8.07v6.81q0,4,0,8c0,1.54-.64,2.19-2.13,2.2H331.26a1.89,1.89,0,0,1-2-1.87c-.07-7.17-.08-14.81,0-23.38a1.84,1.84,0,0,1,1.8-1.81c3.52-.05,7.11-.08,10.72-.08q5.65,0,11.39.09a1.86,1.86,0,0,1,1.65,2C354.83,385.32,354.82,388,354.81,390.67Z"/><path class="cls-2" d="M405.61,336.24a21.49,21.49,0,0,0-.26-3.21,7,7,0,0,0-7.56-5.58c-2.13.19-4.28.08-6.42.07-5.09,0-10.18-.21-15.26,0a6.15,6.15,0,0,0-5.74,4.6,12.56,12.56,0,0,0-.53,3.66c0,2.66.22,5.3.23,8,0,2.17-.19,4.35-.25,6.52,0,.72.23,1.45.23,2.17A49.18,49.18,0,0,0,370,358c.48,4.18,3.24,6.53,7.46,6.56,3.4,0,6.8,0,10.2,0s7,0,10.53,0,5.88-1.62,6.89-4.74a14.75,14.75,0,0,0,.54-4.35C405.66,349,405.64,342.64,405.61,336.24Zm-5,19.15a10.51,10.51,0,0,1-.3,2.86c-.21.65-.41,1.26-2.18,1.28-2.39,0-4.78,0-7.18,0H377.48c-2,0-2.37-.7-2.53-2.12a17.4,17.4,0,0,1,0-2.69c0-.77.08-1.54.08-2.31a10.73,10.73,0,0,0-.18-1.87c0-.1,0-.2-.05-.3,0-.81.07-1.62.11-2.43.07-1.32.14-2.69.14-4.1s-.06-2.78-.12-4.11-.11-2.59-.11-3.81a7.73,7.73,0,0,1,.29-2.16c.36-1.1.83-1.12,1.18-1.13,3.35-.13,6.68-.09,10.2,0,1.61,0,3.23,0,4.84,0l1.6,0a47.38,47.38,0,0,0,5.29-.11,2,2,0,0,1,2.18,1.43,15.07,15.07,0,0,1,.19,2.4C400.64,342.68,400.66,349,400.6,355.39Z"/><path class="cls-2" d="M405.61,336.24a21.49,21.49,0,0,0-.26-3.21,7,7,0,0,0-7.56-5.58c-2.13.19-4.28.08-6.42.07-5.09,0-10.18-.21-15.26,0a6.15,6.15,0,0,0-5.74,4.6,12.56,12.56,0,0,0-.53,3.66c0,2.66.22,5.3.23,8,0,2.17-.19,4.35-.25,6.52,0,.72.23,1.45.23,2.17A49.18,49.18,0,0,0,370,358c.48,4.18,3.24,6.53,7.46,6.56,3.4,0,6.8,0,10.2,0s7,0,10.53,0,5.88-1.62,6.89-4.74a14.75,14.75,0,0,0,.54-4.35C405.66,349,405.64,342.64,405.61,336.24Zm-5,19.15a10.51,10.51,0,0,1-.3,2.86c-.21.65-.41,1.26-2.18,1.28-2.39,0-4.78,0-7.18,0H377.48c-2,0-2.37-.7-2.53-2.12a17.4,17.4,0,0,1,0-2.69c0-.77.08-1.54.08-2.31a10.73,10.73,0,0,0-.18-1.87c0-.1,0-.2-.05-.3,0-.81.07-1.62.11-2.43.07-1.32.14-2.69.14-4.1s-.06-2.78-.12-4.11-.11-2.59-.11-3.81a7.73,7.73,0,0,1,.29-2.16c.36-1.1.83-1.12,1.18-1.13,3.35-.13,6.68-.09,10.2,0,1.61,0,3.23,0,4.84,0l1.6,0a47.38,47.38,0,0,0,5.29-.11,2,2,0,0,1,2.18,1.43,15.07,15.07,0,0,1,.19,2.4C400.64,342.68,400.66,349,400.6,355.39Z"/><path class="cls-2" d="M405.45,382.59c-.17-4.8-3.06-6.95-7.9-7H378.18c-5.56,0-8.36,2.78-8.36,8.36q0,10,0,20.06a16.27,16.27,0,0,0,.24,2.87,6.82,6.82,0,0,0,6.9,5.8h21.42c3.85,0,6.83-2.32,7-6.2C405.64,398.56,405.75,390.56,405.45,382.59Zm-5.09,23.76c0,.41-.05,1.37-2,1.38H377a1.84,1.84,0,0,1-2-1.68,12,12,0,0,1-.16-2q0-10,0-20c0-2.8.56-3.37,3.36-3.37h19.37c2.83,0,2.85.68,2.91,2.15C400.71,389.76,400.68,397.25,400.36,406.35Z"/><path class="cls-2" d="M405.45,382.59c-.17-4.8-3.06-6.95-7.9-7H378.18c-5.56,0-8.36,2.78-8.36,8.36q0,10,0,20.06a16.27,16.27,0,0,0,.24,2.87,6.82,6.82,0,0,0,6.9,5.8h21.42c3.85,0,6.83-2.32,7-6.2C405.64,398.56,405.75,390.56,405.45,382.59Zm-5.09,23.76c0,.41-.05,1.37-2,1.38H377a1.84,1.84,0,0,1-2-1.68,12,12,0,0,1-.16-2q0-10,0-20c0-2.8.56-3.37,3.36-3.37h19.37c2.83,0,2.85.68,2.91,2.15C400.71,389.76,400.68,397.25,400.36,406.35Z"/><path class="cls-2" d="M451.22,335.46c0-5.19-2.71-8.06-7.87-8.12q-9.94-.1-19.88,0c-5.16.07-7.9,3-7.9,8.13q0,10.53,0,21.07c0,5.14,2.82,8,8,8,6.74,0,13.48,0,20.22,0a7,7,0,0,0,7.42-7.33c0-2.46,0-4.91,0-7.37,0-1.22,0-2.44,0-3.68,0-1.75,0-3.51,0-5.26S451.21,337.27,451.22,335.46Zm-5,3.63v1.81c0,1.75,0,3.5,0,5.26V350c0,2.4,0,4.78,0,7.18,0,1.63-.76,2.37-2.43,2.37-6.73,0-13.46,0-20.19,0-2.42,0-3-.59-3-3q0-10.53,0-21.07c0-2.64.74-3.1,3-3.13,6.55-.07,13.2-.07,19.77,0,2.22,0,2.92.46,2.92,3.1C446.21,336.66,446.21,337.87,446.22,339.09Z"/><path class="cls-2" d="M451.22,335.46c0-5.19-2.71-8.06-7.87-8.12q-9.94-.1-19.88,0c-5.16.07-7.9,3-7.9,8.13q0,10.53,0,21.07c0,5.14,2.82,8,8,8,6.74,0,13.48,0,20.22,0a7,7,0,0,0,7.42-7.33c0-2.46,0-4.91,0-7.37,0-1.22,0-2.44,0-3.68,0-1.75,0-3.51,0-5.26S451.21,337.27,451.22,335.46Zm-5,3.63v1.81c0,1.75,0,3.5,0,5.26V350c0,2.4,0,4.78,0,7.18,0,1.63-.76,2.37-2.43,2.37-6.73,0-13.46,0-20.19,0-2.42,0-3-.59-3-3q0-10.53,0-21.07c0-2.64.74-3.1,3-3.13,6.55-.07,13.2-.07,19.77,0,2.22,0,2.92.46,2.92,3.1C446.21,336.66,446.21,337.87,446.22,339.09Z"/><path class="cls-2" d="M451.2,382.68a6.92,6.92,0,0,0-7-7q-10.71-.07-21.41,0a7,7,0,0,0-7.18,7q-.14,11.48,0,22.94c0,4.23,3.06,7.06,7.28,7.08h20.9c4.47,0,7.4-2.92,7.42-7.45,0-1.6,0-3.2,0-4.81v-6.41c0-1.86,0-3.73,0-5.6S451.24,384.61,451.2,382.68Zm-5,3.95c0,.61,0,1.22,0,1.83v2.8c0,.94,0,1.88,0,2.8v6.41c0,1.6,0,3.19,0,4.79,0,1.76-.71,2.47-2.42,2.47H422.91c-2.28,0-2.3-1.6-2.31-2.14-.08-7.57-.08-15.24,0-22.82a2,2,0,0,1,2.23-2.11c3.68,0,7.47-.05,11.35-.05q4.92,0,10,0a1.94,1.94,0,0,1,2,2.14C446.23,384.07,446.22,385.35,446.22,386.63Z"/><path class="cls-2" d="M451.2,382.68a6.92,6.92,0,0,0-7-7q-10.71-.07-21.41,0a7,7,0,0,0-7.18,7q-.14,11.48,0,22.94c0,4.23,3.06,7.06,7.28,7.08h20.9c4.47,0,7.4-2.92,7.42-7.45,0-1.6,0-3.2,0-4.81v-6.41c0-1.86,0-3.73,0-5.6S451.24,384.61,451.2,382.68Zm-5,3.95c0,.61,0,1.22,0,1.83v2.8c0,.94,0,1.88,0,2.8v6.41c0,1.6,0,3.19,0,4.79,0,1.76-.71,2.47-2.42,2.47H422.91c-2.28,0-2.3-1.6-2.31-2.14-.08-7.57-.08-15.24,0-22.82a2,2,0,0,1,2.23-2.11c3.68,0,7.47-.05,11.35-.05q4.92,0,10,0a1.94,1.94,0,0,1,2,2.14C446.23,384.07,446.22,385.35,446.22,386.63Z"/></g></g></svg>