<svg width="512" height="473" viewBox="0 0 512 473" fill="none" xmlns="http://www.w3.org/2000/svg">
    <g clip-path="url(#clip0)">
        <path d="M262.68 182C262.68 183.367 262.275 184.703 261.515 185.839C260.756 186.975 259.677 187.861 258.414 188.384C257.152 188.907 255.762 189.044 254.422 188.777C253.081 188.511 251.85 187.852 250.884 186.886C249.917 185.92 249.259 184.688 248.993 183.348C248.726 182.008 248.863 180.618 249.386 179.356C249.909 178.093 250.795 177.014 251.931 176.255C253.067 175.495 254.403 175.09 255.77 175.09C257.602 175.093 259.358 175.822 260.653 177.117C261.948 178.412 262.677 180.168 262.68 182Z" fill="#E6E6EA" stroke="#E6E6EA" stroke-width="5" stroke-miterlimit="10"/>
        <path d="M482.32 240.5H478.32V225.6C478.316 221.56 477.46 217.567 475.81 213.879C474.159 210.192 471.75 206.894 468.74 204.2L467.41 203V29.23C467.41 21.6103 464.383 14.3027 458.995 8.91482C453.607 3.5269 446.3 0.5 438.68 0.5C431.06 0.5 423.753 3.5269 418.365 8.91482C412.977 14.3027 409.95 21.6103 409.95 29.23V203L408.62 204.2C405.614 206.895 403.208 210.192 401.559 213.877C399.911 217.562 399.056 221.553 399.05 225.59V240.49H112.5V225.6C112.496 221.56 111.64 217.567 109.99 213.879C108.339 210.192 105.93 206.894 102.92 204.2L101.59 203V29.23C101.661 25.4127 100.971 21.6195 99.5593 18.072C98.1477 14.5245 96.0432 11.294 93.3688 8.56923C90.6944 5.84444 87.5037 3.68005 83.9832 2.20253C80.4627 0.725015 76.683 -0.0359802 72.865 -0.0359802C69.047 -0.0359802 65.2673 0.725015 61.7468 2.20253C58.2263 3.68005 55.0356 5.84444 52.3612 8.56923C49.6868 11.294 47.5823 14.5245 46.1707 18.072C44.7591 21.6195 44.0688 25.4127 44.14 29.23V203L42.81 204.2C39.8005 206.893 37.392 210.189 35.7414 213.874C34.0908 217.56 33.2351 221.552 33.23 225.59V240.49H29.23C21.611 240.498 14.3066 243.529 8.92006 248.917C3.53358 254.305 0.505294 261.611 0.5 269.23V356.5C0.511505 362.44 2.35864 368.231 5.78851 373.08C9.21838 377.93 14.0633 381.6 19.66 383.59L22.32 384.53V465.6C22.3253 467.43 23.0553 469.184 24.3503 470.477C25.6454 471.77 27.3999 472.497 29.23 472.5H116.5C118.33 472.497 120.085 471.77 121.38 470.477C122.675 469.184 123.405 467.43 123.41 465.6V428.87H388.14V465.6C388.145 467.43 388.875 469.184 390.17 470.477C391.465 471.77 393.22 472.497 395.05 472.5H482.32C484.15 472.497 485.905 471.77 487.2 470.477C488.495 469.184 489.225 467.43 489.23 465.6V384.53L491.89 383.59C497.487 381.6 502.332 377.93 505.761 373.08C509.191 368.231 511.038 362.44 511.05 356.5V269.23C511.042 261.613 508.013 254.31 502.626 248.924C497.24 243.537 489.937 240.508 482.32 240.5V240.5ZM423.77 29.23C423.77 25.2756 425.341 21.4832 428.137 18.687C430.933 15.8909 434.726 14.32 438.68 14.32C442.634 14.32 446.427 15.8909 449.223 18.687C452.019 21.4832 453.59 25.2756 453.59 29.23V196.87H423.77V29.23ZM412.86 225.6C412.863 221.646 414.434 217.856 417.23 215.06C420.026 212.264 423.816 210.693 427.77 210.69H449.59C453.544 210.693 457.334 212.264 460.13 215.06C462.926 217.856 464.497 221.646 464.5 225.6V240.5H412.86V225.6ZM58 29.23C58 25.2756 59.5709 21.4832 62.367 18.687C65.1632 15.8909 68.9556 14.32 72.91 14.32C76.8644 14.32 80.6568 15.8909 83.453 18.687C86.2491 21.4832 87.82 25.2756 87.82 29.23V196.87H58V29.23ZM47.05 225.6C47.05 223.639 47.437 221.697 48.1888 219.885C48.9406 218.073 50.0424 216.428 51.4312 215.043C52.8199 213.658 54.4683 212.56 56.2819 211.813C58.0955 211.067 60.0386 210.685 62 210.69H83.77C87.7236 210.693 91.5144 212.264 94.31 215.06C97.1056 217.856 98.6774 221.646 98.68 225.6V240.5H47.05V225.6ZM109.59 458.69H36.14V428.87H109.59V458.69ZM475.41 458.69H402V428.87H475.46L475.41 458.69ZM475.41 415.05H36.14V385.23H475.41V415.05ZM497.23 356.5C497.225 360.453 495.652 364.242 492.857 367.037C490.062 369.832 486.273 371.405 482.32 371.41H29.23C25.2772 371.405 21.4879 369.832 18.6929 367.037C15.8979 364.242 14.3253 360.453 14.32 356.5V269.23C14.3253 265.277 15.8979 261.488 18.6929 258.693C21.4879 255.898 25.2772 254.325 29.23 254.32H482.32C486.273 254.325 490.062 255.898 492.857 258.693C495.652 261.488 497.225 265.277 497.23 269.23V356.5Z" fill="#E6E6EA" stroke="#E6E6EA" stroke-miterlimit="10"/>
        <path d="M282.32 284.14H51.0499C49.2181 284.143 47.462 284.872 46.1667 286.167C44.8714 287.462 44.1425 289.218 44.1399 291.05V334.69C44.1425 336.522 44.8714 338.278 46.1667 339.573C47.462 340.868 49.2181 341.597 51.0499 341.6H282.32C284.152 341.597 285.908 340.868 287.203 339.573C288.498 338.278 289.227 336.522 289.23 334.69V291.05C289.227 289.218 288.498 287.462 287.203 286.167C285.908 284.872 284.152 284.143 282.32 284.14V284.14ZM275.41 327.78H57.9999V298H275.41V327.78Z" fill="#E6E6EA" stroke="#E6E6EA" stroke-miterlimit="10"/>
        <path d="M438.68 284.14C432.998 284.14 427.443 285.825 422.718 288.982C417.994 292.139 414.311 296.626 412.137 301.876C409.962 307.125 409.393 312.902 410.502 318.475C411.611 324.048 414.347 329.167 418.365 333.185C422.383 337.203 427.502 339.939 433.075 341.048C438.648 342.157 444.425 341.588 449.674 339.413C454.924 337.239 459.411 333.556 462.568 328.832C465.725 324.107 467.41 318.552 467.41 312.87C467.402 305.253 464.373 297.95 458.986 292.564C453.6 287.177 446.297 284.148 438.68 284.14V284.14ZM438.68 327.78C435.731 327.78 432.848 326.906 430.396 325.267C427.944 323.629 426.033 321.3 424.905 318.576C423.776 315.851 423.481 312.853 424.056 309.961C424.632 307.069 426.052 304.412 428.137 302.327C430.222 300.242 432.879 298.822 435.771 298.246C438.663 297.671 441.661 297.966 444.386 299.095C447.11 300.223 449.439 302.135 451.077 304.586C452.716 307.038 453.59 309.921 453.59 312.87C453.585 316.823 452.012 320.612 449.217 323.407C446.422 326.202 442.633 327.775 438.68 327.78V327.78Z" fill="#E6E6EA" stroke="#E6E6EA" stroke-miterlimit="10"/>
        <path d="M294.07 146.34C294.064 147.877 293.547 149.369 292.6 150.58C291.653 151.791 290.33 152.653 288.84 153.03C287.96 153.255 287.044 153.302 286.146 153.168C285.248 153.034 284.386 152.722 283.61 152.25C275.207 147.196 265.586 144.526 255.78 144.526C245.974 144.526 236.353 147.196 227.95 152.25C227.172 152.744 226.303 153.077 225.394 153.23C224.486 153.383 223.556 153.353 222.659 153.142C221.762 152.93 220.916 152.541 220.172 151.997C219.428 151.454 218.8 150.767 218.325 149.977C217.85 149.188 217.538 148.311 217.407 147.399C217.276 146.487 217.328 145.557 217.562 144.666C217.795 143.774 218.205 142.939 218.766 142.208C219.327 141.477 220.029 140.866 220.83 140.41C231.379 134.063 243.458 130.709 255.77 130.709C268.082 130.709 280.161 134.063 290.71 140.41C291.734 141.027 292.582 141.898 293.171 142.938C293.759 143.979 294.069 145.154 294.07 146.35V146.34Z" fill="#E6E6EA" stroke="#E6E6EA" stroke-miterlimit="10"/>
        <path d="M351.17 84C350.152 85.5226 348.572 86.5797 346.777 86.9396C344.981 87.2994 343.116 86.9328 341.59 85.92L334.28 81.04C311.056 65.4842 283.733 57.1793 255.78 57.1793C227.827 57.1793 200.505 65.4842 177.28 81.04L170 85.94C169.246 86.4794 168.391 86.8616 167.486 87.0637C166.581 87.2658 165.645 87.2838 164.733 87.1165C163.821 86.9492 162.952 86.6001 162.178 86.0899C161.404 85.5798 160.74 84.919 160.227 84.1471C159.713 83.3751 159.36 82.5077 159.189 81.5965C159.017 80.6853 159.031 79.7489 159.229 78.8432C159.428 77.9374 159.806 77.0808 160.342 76.3243C160.878 75.5679 161.561 74.9271 162.35 74.44L169.69 69.55C195.179 52.4825 225.164 43.3708 255.84 43.3708C286.516 43.3708 316.501 52.4825 341.99 69.55L349.3 74.42C350.053 74.9252 350.699 75.5741 351.201 76.3294C351.703 77.0848 352.05 77.9318 352.224 78.8218C352.398 79.7118 352.394 80.6274 352.213 81.5159C352.032 82.4045 351.678 83.2487 351.17 84V84Z" fill="#E6E6EA" stroke="#E6E6EA" stroke-miterlimit="10"/>
        <path d="M322.06 117.07C321.557 117.825 320.91 118.474 320.156 118.979C319.402 119.483 318.555 119.834 317.665 120.011C316.775 120.187 315.858 120.186 314.969 120.008C314.079 119.829 313.233 119.476 312.48 118.97L310 117.35C293.94 106.602 275.05 100.865 255.725 100.865C236.4 100.865 217.51 106.602 201.45 117.35L199.06 119C197.538 120.017 195.674 120.388 193.878 120.031C192.082 119.673 190.502 118.617 189.485 117.095C188.468 115.573 188.097 113.709 188.455 111.913C188.812 110.117 189.868 108.537 191.39 107.52L193.82 105.89C212.152 93.6285 233.71 87.0833 255.765 87.0833C277.82 87.0833 299.378 93.6285 317.71 105.89L320.16 107.52C321.669 108.542 322.714 110.118 323.07 111.905C323.426 113.693 323.063 115.548 322.06 117.07V117.07Z" fill="#E6E6EA" stroke="#E6E6EA" stroke-miterlimit="10"/>
    </g>
    <defs>
        <clipPath id="clip0">
            <rect width="511.55" height="473" fill="white"/>
        </clipPath>
    </defs>
</svg>
