<svg xmlns="http://www.w3.org/2000/svg" viewBox="0 0 414.6 505.9"><defs><style>.cls-1{fill:#161e3d;}.cls-2{font-size:133.34px;fill:#d0333c;font-family:SourceSansPro-Black, SourceSansPro Black;font-weight:800;}</style></defs><title>6icon-features-3.svg</title><g id="Слой_2" data-name="Слой 2"><g id="Слой_1-2" data-name="Слой 1"><path class="cls-1" d="M406,59.6A51.26,51.26,0,0,1,354.8,8.4,8.41,8.41,0,0,0,346.4,0H68a8.41,8.41,0,0,0-8.4,8.4A51.26,51.26,0,0,1,8.4,59.6,8.41,8.41,0,0,0,0,68V230.2C0,358.1,82.32,468.76,204.83,505.56a7.8,7.8,0,0,0,2.47.34,8.06,8.06,0,0,0,2.47-.34C332.29,468.85,414.6,358.19,414.6,230.2V68A8.63,8.63,0,0,0,406,59.6ZM207.65,488.53l-.45.14-.45-.14A270.32,270.32,0,0,1,16.8,230.3V76l1.29-.18A68.32,68.32,0,0,0,75.72,18.19l.18-1.29H338.4l.18,1.29a68.3,68.3,0,0,0,57.63,57.62l1.29.19V228.8l.1,1.5C397.6,349.4,321.26,453.17,207.65,488.53Z"/><path class="cls-1" d="M369.7,91.77a90.82,90.82,0,0,1-47-47A8.61,8.61,0,0,0,315,39.7H247a8.35,8.35,0,0,0-1.13.09H99.6a8.42,8.42,0,0,0-7.72,5.1,90.87,90.87,0,0,1-47,47,8.6,8.6,0,0,0-5.1,7.72V230.4c0,106.39,64.65,198,164.7,233.39a7.91,7.91,0,0,0,5.59,0c100.06-35.43,164.71-127,164.71-233.39V99.5A8.75,8.75,0,0,0,369.7,91.77ZM357.9,230.2c0,48-14.11,93.72-40.81,132.14s-64.45,67.46-109.27,84.07l-.52.19-.52-.19C162,429.8,124.18,400.74,97.51,362.34S56.7,278.22,56.7,230.2V104.88l.82-.42a107.06,107.06,0,0,0,47-47l.42-.82H260.9a8.35,8.35,0,0,0,1.13-.09h47.59l.42.82a107.06,107.06,0,0,0,47,47l.82.42Z"/><text class="cls-2" transform="translate(87.4 268.04)">IP67</text></g></g></svg>