<svg xmlns="http://www.w3.org/2000/svg" viewBox="0 0 507.7 507.7"><defs><style>.cls-1{fill:#161e3d;}.cls-2{fill:#d0333c;}</style></defs><title>6icon-features-2.svg</title><g id="Слой_2" data-name="Слой 2"><g id="Слой_1-2" data-name="Слой 1"><path class="cls-1" d="M124.64,139.5,141,82.1H84.35L45.91,187.8H89L72.58,294.4h22.1l72.93-154.9ZM93.38,261,107,172.2H69.09l-.89,2.44V171.2h.19L95.25,97.4h25.41l-16.4,57.4h39.13Z"/><path class="cls-1" d="M68.7,171.7v.1l0-.1Zm0,0v.1l0-.1Zm0,0v.1l0-.1Zm0,0v.1l0-.1Zm0,0v.1l0-.1Zm0,0v.1l0-.1Zm0,0v.1l0-.1Zm0,0v.1l0-.1Zm0,0v.1l0-.1Zm0,0v.1l0-.1Zm0,0v.1l0-.1Zm0,0v.1l0-.1Zm0,0v.1l0-.1Zm0,0v.1l0-.1Zm0,0v.1l0-.1Z"/><path class="cls-1" d="M270.3,32.8A235.2,235.2,0,0,0,181,50.26l-.14.06-.15,0a44.13,44.13,0,0,0-8.9-1.09h-8.7V24.1A24.13,24.13,0,0,0,139,0H73.3A24.13,24.13,0,0,0,49.2,24.1V49.2H40.5A40.55,40.55,0,0,0,0,89.7V319.5A40.55,40.55,0,0,0,40.5,360h10l.12.31C86.88,448.47,175.11,507.7,270.2,507.7c131,0,237.5-106.54,237.5-237.5S401.2,32.8,270.3,32.8ZM64.6,24.1a8.71,8.71,0,0,1,8.7-8.7H139a8.71,8.71,0,0,1,8.7,8.7V49.2H64.6ZM15.4,89.8A25.18,25.18,0,0,1,40.5,64.6H171.8a25.13,25.13,0,0,1,25.1,25.1V311.8H15.4ZM278,113.9V81.18l.52,0a189.84,189.84,0,0,1,119.62,49.63l.38.35-23,23,10.89,10.89,23-23,.35.38A189.34,189.34,0,0,1,459.4,262.08l0,.52H426.8V278h32.62l0,.52a189.84,189.84,0,0,1-49.63,119.62l-.35.38-23-23L375.51,386.4l23,23-.38.35A189.34,189.34,0,0,1,278.52,459.4l-.52,0V426.8H262.6v32.52l-.52,0a189.72,189.72,0,0,1-119.52-49.63l-.38-.35,22.91-22.92L154.2,375.51l-23,23-.36-.38a189.85,189.85,0,0,1-26.77-37.2l-.4-.74h68a40.55,40.55,0,0,0,40.5-40.5V90.23l.35-.11a190.56,190.56,0,0,1,49.53-8.72l.52,0V113.9ZM40.27,344.6a24.89,24.89,0,0,1-23.34-16.73l-.24-.67H195.61l-.24.67A25.15,25.15,0,0,1,171.8,344.6Zm230,147.8A223.44,223.44,0,0,1,67.64,360.8l-.31-.7H86.51l.14.28C120.92,430,193,475,270.3,475,383.17,475,475,383.17,475,270.3S383.17,65.6,270.3,65.6A202.8,202.8,0,0,0,210,74.88l-.44.13-.17-.42a41,41,0,0,0-9.59-14.13l-.6-.57.79-.26A222.82,222.82,0,0,1,270.3,48.2c122.47,0,222.1,99.63,222.1,222.1S392.77,492.4,270.3,492.4Z"/><polygon class="cls-1" points="324.69 313.7 313.8 324.59 262.7 273.49 262.7 164.1 278.1 164.1 278.1 267.11 324.69 313.7"/><polygon class="cls-2" points="68.7 171.7 68.74 171.7 68.7 171.8 68.7 171.7"/><path class="cls-2" d="M124.64,139.5,141,82.1H84.35L45.91,187.8H89L72.58,294.4h22.1l72.93-154.9ZM93.38,261,107,172.2H69.09l-.89,2.44V171.2h.19L95.25,97.4h25.41l-16.4,57.4h39.13Z"/><polygon class="cls-2" points="324.69 313.7 313.8 324.59 262.7 273.49 262.7 164.1 278.1 164.1 278.1 267.11 324.69 313.7"/></g></g></svg>