<svg width="476" height="476" viewBox="0 0 476 476" fill="none" xmlns="http://www.w3.org/2000/svg">
    <g clip-path="url(#clip0)">
        <path d="M82.5801 220.18C82.5722 222.255 81.743 224.243 80.2738 225.708C78.8047 227.173 76.8151 227.997 74.7401 228H53.0001C51.9476 228.038 50.8984 227.863 49.915 227.486C48.9316 227.109 48.0341 226.538 47.2763 225.807C46.5184 225.076 45.9157 224.199 45.504 223.23C45.0923 222.26 44.8801 221.218 44.8801 220.165C44.8801 219.112 45.0923 218.07 45.504 217.1C45.9157 216.131 46.5184 215.254 47.2763 214.523C48.0341 213.792 48.9316 213.221 49.915 212.844C50.8984 212.467 51.9476 212.292 53.0001 212.33H74.7401C75.7705 212.33 76.7908 212.533 77.7426 212.928C78.6945 213.322 79.5592 213.901 80.2873 214.63C81.0155 215.359 81.5928 216.224 81.9862 217.177C82.3796 218.129 82.5814 219.15 82.5801 220.18V220.18Z" fill="#E6E6EA"/>
        <path d="M125.86 167.9C125.857 169.978 125.03 171.969 123.56 173.437C122.09 174.905 120.098 175.73 118.02 175.73H53.0001C51.9476 175.768 50.8984 175.593 49.915 175.216C48.9316 174.839 48.0341 174.268 47.2763 173.537C46.5184 172.806 45.9157 171.929 45.504 170.96C45.0923 169.99 44.8801 168.948 44.8801 167.895C44.8801 166.842 45.0923 165.8 45.504 164.83C45.9157 163.861 46.5184 162.984 47.2763 162.253C48.0341 161.522 48.9316 160.951 49.915 160.574C50.8984 160.197 51.9476 160.022 53.0001 160.06H118C119.031 160.059 120.052 160.26 121.005 160.654C121.958 161.047 122.824 161.624 123.554 162.352C124.284 163.08 124.863 163.945 125.259 164.897C125.654 165.849 125.859 166.869 125.86 167.9Z" fill="#E6E6EA"/>
        <path d="M467.23 116.16H447.65L447.35 115.06C444.647 105.471 440.817 96.2371 435.94 87.55L435.38 86.55L449.23 72.7C449.958 71.9728 450.536 71.1092 450.93 70.1586C451.324 69.208 451.527 68.1891 451.527 67.16C451.527 66.131 451.324 65.112 450.93 64.1614C450.536 63.2108 449.958 62.3472 449.23 61.62L413.45 25.84C412.723 25.1107 411.86 24.5321 410.909 24.1372C409.959 23.7424 408.939 23.5391 407.91 23.5391C406.881 23.5391 405.861 23.7424 404.911 24.1372C403.96 24.5321 403.097 25.1107 402.37 25.84L388.52 39.69L387.52 39.13C378.831 34.249 369.593 30.4188 360 27.72L358.9 27.42V7.84C358.897 5.76324 358.072 3.77216 356.604 2.30273C355.137 0.833304 353.147 0.00528943 351.07 0L300.47 0C298.392 0.00264607 296.399 0.829493 294.929 2.29921C293.459 3.76892 292.633 5.76152 292.63 7.84V27.38L291.54 27.68C281.94 30.373 272.695 34.1999 264 39.08L263 39.64L249.2 25.84C248.473 25.1107 247.61 24.5321 246.659 24.1372C245.709 23.7424 244.689 23.5391 243.66 23.5391C242.631 23.5391 241.611 23.7424 240.661 24.1372C239.71 24.5321 238.847 25.1107 238.12 25.84L202.32 61.62C201.539 62.3862 200.929 63.3088 200.529 64.3272C200.129 65.3457 199.949 66.4371 200 67.53L200.07 69.1H31.65C23.2601 69.1079 15.2159 72.4437 9.28237 78.3753C3.34885 84.3069 0.0105896 92.3501 0 100.74V370.59C0.0105845 378.981 3.34853 387.025 9.28176 392.958C15.215 398.891 23.2591 402.229 31.65 402.24H175.54V459.39H142.39C140.311 459.39 138.317 460.216 136.846 461.686C135.376 463.157 134.55 465.151 134.55 467.23C134.55 469.309 135.376 471.303 136.846 472.774C138.317 474.244 140.311 475.07 142.39 475.07H295.33C297.409 475.07 299.403 474.244 300.874 472.774C302.344 471.303 303.17 469.309 303.17 467.23C303.17 465.151 302.344 463.157 300.874 461.686C299.403 460.216 297.409 459.39 295.33 459.39H262.18V402.24H406.07C414.461 402.229 422.505 398.891 428.438 392.958C434.371 387.025 437.709 378.981 437.72 370.59V248.49L449.23 237C450.699 235.528 451.523 233.534 451.523 231.455C451.523 229.376 450.699 227.382 449.23 225.91L435.43 212.11L435.99 211.11C440.871 202.405 444.697 193.15 447.39 183.54L447.69 182.45H467.23C469.308 182.447 471.301 181.62 472.771 180.151C474.24 178.681 475.067 176.688 475.07 174.61V124C475.067 121.922 474.24 119.929 472.771 118.459C471.301 116.989 469.308 116.163 467.23 116.16ZM246.51 459.39H191.22V402.24H246.51V459.39ZM422 370.59C422 374.833 420.314 378.903 417.314 381.904C414.313 384.904 410.243 386.59 406 386.59H31.65C27.4065 386.59 23.3369 384.904 20.3363 381.904C17.3357 378.903 15.65 374.833 15.65 370.59V340.92H422V370.59ZM422 325.25H15.68V100.74C15.68 96.4965 17.3657 92.4269 20.3663 89.4263C23.3669 86.4257 27.4365 84.74 31.68 84.74H214.38L216.08 86.43L215.52 87.43C210.612 96.1407 206.761 105.406 204.05 115.03L203.74 116.13H184.31C182.232 116.133 180.241 116.96 178.773 118.43C177.305 119.9 176.48 121.892 176.48 123.97V160.02H155.58C153.501 160.02 151.507 160.846 150.036 162.316C148.566 163.787 147.74 165.781 147.74 167.86C147.74 169.939 148.566 171.933 150.036 173.404C151.507 174.874 153.501 175.7 155.58 175.7H176.48L176.8 176.78C177.283 178.4 178.273 179.821 179.625 180.835C180.978 181.849 182.62 182.401 184.31 182.41H203.71L204.01 183.5C206.606 192.749 210.253 201.671 214.88 210.09L216.1 212.31H109C106.919 212.31 104.924 213.137 103.453 214.608C101.982 216.079 101.155 218.074 101.155 220.155C101.155 222.236 101.982 224.231 103.453 225.702C104.924 227.173 106.919 228 109 228H200.57L200.2 229.8C199.931 231.074 199.984 232.395 200.354 233.644C200.724 234.892 201.4 236.028 202.32 236.95L238.11 272.74C239.581 274.206 241.573 275.028 243.65 275.028C245.727 275.028 247.719 274.206 249.19 272.74L262.9 259.03L263.9 259.59C272.632 264.493 281.917 268.337 291.56 271.04L292.65 271.34V290.74C292.653 292.818 293.48 294.809 294.95 296.277C296.42 297.745 298.412 298.57 300.49 298.57H351.09C353.168 298.57 355.16 297.745 356.63 296.277C358.1 294.809 358.927 292.818 358.93 290.74V271.32L360 271C369.628 268.291 378.897 264.44 387.61 259.53L388.61 258.97L402.37 272.74C403.841 274.206 405.833 275.028 407.91 275.028C409.987 275.028 411.979 274.206 413.45 272.74L422.04 264.14L422 325.25ZM459.35 166.76H441.53C439.742 166.77 438.01 167.386 436.618 168.509C435.227 169.632 434.258 171.194 433.87 172.94C431.097 185.774 426.04 198.005 418.94 209.05C417.984 210.558 417.568 212.345 417.76 214.12C417.953 215.895 418.743 217.552 420 218.82L432.61 231.43L407.91 256.13L395.33 243.55C394.059 242.291 392.398 241.501 390.619 241.311C388.84 241.12 387.049 241.539 385.54 242.5C374.494 249.627 362.256 254.708 349.41 257.5C347.665 257.888 346.104 258.857 344.983 260.249C343.862 261.641 343.247 263.373 343.24 265.16V282.91H308.31V265.2C308.3 263.412 307.684 261.68 306.561 260.288C305.438 258.897 303.876 257.928 302.13 257.54C289.265 254.75 277.007 249.669 265.94 242.54C264.432 241.58 262.643 241.161 260.866 241.352C259.089 241.542 257.429 242.332 256.16 243.59L243.64 256.11L218.94 231.41L231.46 218.89C232.71 217.614 233.49 215.952 233.672 214.175C233.854 212.398 233.426 210.612 232.46 209.11C225.331 198.043 220.25 185.785 217.46 172.92C217.072 171.174 216.103 169.612 214.712 168.489C213.32 167.366 211.588 166.75 209.8 166.74H192.15V131.83H209.9C211.686 131.823 213.416 131.21 214.808 130.091C216.2 128.972 217.17 127.413 217.56 125.67C220.354 112.822 225.435 100.581 232.56 89.53C233.529 88.0269 233.958 86.2388 233.776 84.4597C233.594 82.6806 232.813 81.0162 231.56 79.74L218.94 67.16L243.64 42.46L256.25 55.07C257.516 56.3225 259.169 57.1092 260.94 57.3017C262.711 57.4942 264.494 57.0812 266 56.13C277.053 49.0316 289.29 43.9748 302.13 41.2C303.877 40.8141 305.44 39.8456 306.563 38.4535C307.686 37.0614 308.302 35.3286 308.31 33.54V15.68H343.24V33.57C343.247 35.3559 343.86 37.0865 344.979 38.4782C346.098 39.8699 347.657 40.8402 349.4 41.23C362.22 44.0331 374.434 49.1135 385.46 56.23C386.962 57.1964 388.748 57.6238 390.525 57.4422C392.302 57.2605 393.964 56.4805 395.24 55.23L407.91 42.56L432.61 67.26L419.94 79.83C418.682 81.0994 417.892 82.7589 417.702 84.5361C417.511 86.3132 417.93 88.1024 418.89 89.61C425.989 100.639 431.053 112.853 433.84 125.67C434.23 127.413 435.2 128.972 436.592 130.091C437.984 131.21 439.714 131.823 441.5 131.83H459.39L459.35 166.76Z" fill="#E6E6EA"/>
        <path d="M325.77 66.76C309.445 66.76 293.487 71.6009 279.913 80.6705C266.34 89.7401 255.76 102.631 249.513 117.713C243.266 132.796 241.631 149.392 244.816 165.403C248.001 181.414 255.862 196.121 267.405 207.665C278.949 219.208 293.656 227.069 309.667 230.254C325.678 233.439 342.274 231.804 357.357 225.557C372.439 219.31 385.33 208.73 394.4 195.157C403.469 181.583 408.31 165.625 408.31 149.3C408.286 127.416 399.582 106.436 384.108 90.9617C368.634 75.4876 347.654 66.7838 325.77 66.76V66.76ZM325.77 216.16C312.546 216.16 299.62 212.239 288.625 204.892C277.63 197.545 269.06 187.103 263.999 174.886C258.939 162.669 257.615 149.226 260.195 136.256C262.775 123.287 269.142 111.373 278.493 102.023C287.843 92.6723 299.757 86.3045 312.726 83.7247C325.696 81.1449 339.139 82.4689 351.356 87.5294C363.573 92.5899 374.015 101.16 381.362 112.155C388.709 123.15 392.63 136.076 392.63 149.3C392.609 167.026 385.558 184.02 373.024 196.554C360.49 209.088 343.496 216.139 325.77 216.16V216.16Z" fill="#E6E6EA"/>
    </g>
    <defs>
        <clipPath id="clip0">
            <rect width="475.07" height="475.07" fill="white"/>
        </clipPath>
    </defs>
</svg>
