<svg xmlns="http://www.w3.org/2000/svg" viewBox="0 0 476.2 476.2"><title>6Ресурс 1</title><g id="Слой_2" data-name="Слой 2"><g id="Capa_1" data-name="Capa 1"><path d="M473.68,0H140.77a2.52,2.52,0,0,0-2.52,2.52V289.34a2.54,2.54,0,0,1-2.6,2.52h0A94.86,94.86,0,0,0,80.2,309.62L65.43,320.17a2.51,2.51,0,0,1-4-2.05v-8.37a2.52,2.52,0,0,0-2.53-2.52H2.52A2.52,2.52,0,0,0,0,309.75V473.68a2.52,2.52,0,0,0,2.52,2.52h56.4a2.52,2.52,0,0,0,2.53-2.52V458.4a2.53,2.53,0,0,1,1-2l29.47-21a68.66,68.66,0,0,1,40.18-12.88H283.08a83.94,83.94,0,0,0,59.74-24.74l46.36-46.36a32.49,32.49,0,0,0,3.82-4.64,2.49,2.49,0,0,1,2.05-1.06h78.63a2.52,2.52,0,0,0,2.52-2.52V2.52A2.52,2.52,0,0,0,473.68,0ZM458.31,61.45h-94.8A2.52,2.52,0,0,1,361,58.92v-41a2.52,2.52,0,0,1,2.52-2.52h94.8a2.52,2.52,0,0,1,2.53,2.52v41A2.53,2.53,0,0,1,458.31,61.45Zm-187,15.36h71.77a2.52,2.52,0,0,1,2.52,2.52v36.15a2.52,2.52,0,0,1-4.1,2L328,106.64a2.53,2.53,0,0,0-3.16,0l-16,12.84a2.51,2.51,0,0,1-3.15,0l-16.07-12.84a2.51,2.51,0,0,0-3.15,0l-13.54,10.83a2.53,2.53,0,0,1-4.1-2V79.33A2.52,2.52,0,0,1,271.34,76.81Zm-2.52-17.89v-41a2.52,2.52,0,0,1,2.52-2.52h71.77a2.52,2.52,0,0,1,2.52,2.52v41a2.52,2.52,0,0,1-2.52,2.53H271.34A2.52,2.52,0,0,1,268.82,58.92Zm-15.36-41v41a2.52,2.52,0,0,1-2.52,2.53h-94.8a2.53,2.53,0,0,1-2.53-2.53v-41a2.52,2.52,0,0,1,2.53-2.52h94.8A2.52,2.52,0,0,1,253.46,17.88Zm-209.9,443H17.88a2.52,2.52,0,0,1-2.52-2.53V325.11a2.52,2.52,0,0,1,2.52-2.52H43.56a2.52,2.52,0,0,1,2.52,2.52v133.2A2.52,2.52,0,0,1,43.56,460.84Zm288.41-74a68.69,68.69,0,0,1-48.88,20.24H132.15A84,84,0,0,0,83,422.81L65.43,435.38a2.51,2.51,0,0,1-4-2.05V343.19a2.53,2.53,0,0,1,1-2.05l26.63-19a80.71,80.71,0,0,1,78-8.44l20.68,8.87a94.8,94.8,0,0,0,37.57,7.72h42.11a2.47,2.47,0,0,1,1.69.65c14.52,13.37,5.16,30.07-8,30.07h-128a2.52,2.52,0,0,0-2.52,2.52v10.32a2.52,2.52,0,0,0,2.52,2.52h128A30.75,30.75,0,0,0,291.77,348a2.54,2.54,0,0,1,2.52-2.35h72.79a2.52,2.52,0,0,1,1.78,4.31Zm11.14-56.56H289.05a2.55,2.55,0,0,1-2.16-1.15,30.69,30.69,0,0,0-16.34-12.62,2.51,2.51,0,0,1-1.73-2.39v-30.2a2.53,2.53,0,0,1,4.1-2l13.5,10.82a2.53,2.53,0,0,0,3.16,0l16-12.85a2.54,2.54,0,0,1,3.15,0l16.07,12.84a2.51,2.51,0,0,0,3.15,0l13.54-10.82a2.52,2.52,0,0,1,4.1,2v43.84A2.52,2.52,0,0,1,343.11,330.27ZM361,327.74V263.66a2.52,2.52,0,0,0-2.52-2.52H343.82a2.57,2.57,0,0,0-1.58.55L328,273.09a2.51,2.51,0,0,1-3.15,0l-16.07-12.84a2.54,2.54,0,0,0-3.15,0l-16,12.83a2.53,2.53,0,0,1-3.16,0l-14.2-11.38a2.54,2.54,0,0,0-1.58-.56H256a2.52,2.52,0,0,0-2.52,2.52v48.72a2.52,2.52,0,0,1-2.52,2.53H225.37a79.54,79.54,0,0,1-31.51-6.47l-20.68-8.87A94.82,94.82,0,0,0,155.63,294a2.53,2.53,0,0,1-2-2.47V79.33a2.52,2.52,0,0,1,2.53-2.52h94.8a2.52,2.52,0,0,1,2.52,2.52v56.4a2.52,2.52,0,0,0,2.52,2.52h14.65a2.51,2.51,0,0,0,1.58-.55l14.25-11.4a2.51,2.51,0,0,1,3.15,0l16.07,12.84a2.51,2.51,0,0,0,3.15,0l16-12.83a2.53,2.53,0,0,1,3.16,0l14.2,11.39a2.53,2.53,0,0,0,1.58.55h14.66a2.52,2.52,0,0,0,2.52-2.52V79.33a2.52,2.52,0,0,1,2.52-2.52h94.8a2.52,2.52,0,0,1,2.53,2.52V327.74a2.53,2.53,0,0,1-2.53,2.53h-94.8A2.52,2.52,0,0,1,361,327.74Z"/><path d="M325.11,245.78H443a2.52,2.52,0,0,0,2.53-2.52V171.5A2.53,2.53,0,0,0,443,169H325.11a2.52,2.52,0,0,0-2.52,2.53v71.76A2.52,2.52,0,0,0,325.11,245.78Zm15.36-61.44h87.12a2.52,2.52,0,0,1,2.53,2.52v41a2.52,2.52,0,0,1-2.53,2.52H340.47A2.52,2.52,0,0,1,338,227.9v-41A2.52,2.52,0,0,1,340.47,184.34Z"/></g></g></svg>