<svg width="512" height="480" viewBox="0 0 512 480" fill="none" xmlns="http://www.w3.org/2000/svg">
    <path d="M498.33 143.83C502.129 143.271 505.6 141.364 508.11 138.458C510.619 135.552 512 131.84 512 128V2.72C512 1.99861 511.713 1.30677 511.203 0.796672C510.693 0.286573 510.001 2.26063e-06 509.28 2.26063e-06H456C454.247 -0.00131539 452.541 0.573412 451.147 1.63579C449.752 2.69817 448.745 4.18935 448.28 5.88C448.136 6.47721 447.797 7.00956 447.318 7.39334C446.838 7.77711 446.244 7.99052 445.63 8H66.37C65.7557 7.99052 65.162 7.77711 64.6823 7.39334C64.2026 7.00956 63.8641 6.47721 63.72 5.88C63.2554 4.18935 62.2482 2.69817 60.8534 1.63579C59.4585 0.573412 57.7533 -0.00131539 56 2.26063e-06H2.72C1.99861 2.26063e-06 1.30677 0.286573 0.79667 0.796672C0.286571 1.30677 9.88802e-09 1.99861 9.88802e-09 2.72V128C-0.00013492 131.84 1.38066 135.552 3.89032 138.458C6.39997 141.364 9.87109 143.271 13.67 143.83C14.3167 143.924 14.9081 144.247 15.336 144.741C15.7638 145.235 15.9995 145.867 16 146.52V397.28C16 398.001 15.7134 398.693 15.2033 399.203C14.6932 399.713 14.0014 400 13.28 400H2.72C1.99861 400 1.30677 400.287 0.79667 400.797C0.286571 401.307 9.88802e-09 401.999 9.88802e-09 402.72V477.28C9.88802e-09 478.001 0.286571 478.693 0.79667 479.203C1.30677 479.713 1.99861 480 2.72 480H509.28C510.001 480 510.693 479.713 511.203 479.203C511.713 478.693 512 478.001 512 477.28V402.72C512 401.999 511.713 401.307 511.203 400.797C510.693 400.287 510.001 400 509.28 400H498.72C497.999 400 497.307 399.713 496.797 399.203C496.287 398.693 496 398.001 496 397.28V146.52C496 145.867 496.236 145.235 496.664 144.741C497.092 144.247 497.683 143.924 498.33 143.83ZM464 384V146.72C464 146.363 464.07 146.009 464.207 145.679C464.344 145.349 464.544 145.049 464.797 144.797C465.049 144.544 465.349 144.344 465.679 144.207C466.009 144.07 466.363 144 466.72 144H477.28C478.001 144 478.693 144.287 479.203 144.797C479.713 145.307 480 145.999 480 146.72V397.28C480 398.001 479.713 398.693 479.203 399.203C478.693 399.713 478.001 400 477.28 400H466.72C466.363 400 466.009 399.93 465.679 399.793C465.349 399.656 465.049 399.456 464.797 399.203C464.544 398.951 464.344 398.651 464.207 398.321C464.07 397.991 464 397.637 464 397.28V384ZM64 136V114.72C64 113.999 64.2866 113.307 64.7967 112.797C65.3068 112.287 65.9986 112 66.72 112H269.28C270.001 112 270.693 111.713 271.203 111.203C271.713 110.693 272 110.001 272 109.28V98.72C272 97.9986 271.713 97.3068 271.203 96.7967C270.693 96.2866 270.001 96 269.28 96H66.72C65.9986 96 65.3068 95.7134 64.7967 95.2033C64.2866 94.6932 64 94.0014 64 93.28V82.72C64 81.9986 64.2866 81.3068 64.7967 80.7967C65.3068 80.2866 65.9986 80 66.72 80H269.28C270.001 80 270.693 79.7134 271.203 79.2033C271.713 78.6932 272 78.0014 272 77.28V66.72C272 65.9986 271.713 65.3068 271.203 64.7967C270.693 64.2866 270.001 64 269.28 64H258.72C257.999 64 257.307 63.7134 256.797 63.2033C256.287 62.6932 256 62.0014 256 61.28V42.72C256 41.9986 255.713 41.3068 255.203 40.7967C254.693 40.2866 254.001 40 253.28 40H242.72C241.999 40 241.307 40.2866 240.797 40.7967C240.287 41.3068 240 41.9986 240 42.72V61.28C240 62.0014 239.713 62.6932 239.203 63.2033C238.693 63.7134 238.001 64 237.28 64H210.72C209.999 64 209.307 63.7134 208.797 63.2033C208.287 62.6932 208 62.0014 208 61.28V50.72C208 49.9986 207.713 49.3068 207.203 48.7967C206.693 48.2866 206.001 48 205.28 48H194.72C193.999 48 193.307 48.2866 192.797 48.7967C192.287 49.3068 192 49.9986 192 50.72V61.28C192 62.0014 191.713 62.6932 191.203 63.2033C190.693 63.7134 190.001 64 189.28 64H162.72C161.999 64 161.307 63.7134 160.797 63.2033C160.287 62.6932 160 62.0014 160 61.28V42.72C160 41.9986 159.713 41.3068 159.203 40.7967C158.693 40.2866 158.001 40 157.28 40H146.72C145.999 40 145.307 40.2866 144.797 40.7967C144.287 41.3068 144 41.9986 144 42.72V61.28C144 62.0014 143.713 62.6932 143.203 63.2033C142.693 63.7134 142.001 64 141.28 64H114.72C113.999 64 113.307 63.7134 112.797 63.2033C112.287 62.6932 112 62.0014 112 61.28V50.72C112 49.9986 111.713 49.3068 111.203 48.7967C110.693 48.2866 110.001 48 109.28 48H98.72C97.9986 48 97.3068 48.2866 96.7967 48.7967C96.2866 49.3068 96 49.9986 96 50.72V61.28C96 62.0014 95.7134 62.6932 95.2033 63.2033C94.6932 63.7134 94.0014 64 93.28 64H66.72C65.9986 64 65.3068 63.7134 64.7967 63.2033C64.2866 62.6932 64 62.0014 64 61.28V26.72C64 25.9986 64.2866 25.3068 64.7967 24.7967C65.3068 24.2866 65.9986 24 66.72 24H445.28C446.001 24 446.693 24.2866 447.203 24.7967C447.713 25.3068 448 25.9986 448 26.72V61.28C448 62.0014 447.713 62.6932 447.203 63.2033C446.693 63.7134 446.001 64 445.28 64H434.72C433.999 64 433.307 64.2866 432.797 64.7967C432.287 65.3068 432 65.9986 432 66.72V77.28C432 78.0014 432.287 78.6932 432.797 79.2033C433.307 79.7134 433.999 80 434.72 80H445.28C446.001 80 446.693 80.2866 447.203 80.7967C447.713 81.3068 448 81.9986 448 82.72V93.28C448 94.0014 447.713 94.6932 447.203 95.2033C446.693 95.7134 446.001 96 445.28 96H434.72C433.999 96 433.307 96.2866 432.797 96.7967C432.287 97.3068 432 97.9986 432 98.72V109.28C432 110.001 432.287 110.693 432.797 111.203C433.307 111.713 433.999 112 434.72 112H445.28C446.001 112 446.693 112.287 447.203 112.797C447.713 113.307 448 113.999 448 114.72V373.28C448 374.001 447.713 374.693 447.203 375.203C446.693 375.713 446.001 376 445.28 376H346.72C345.999 376 345.307 375.713 344.797 375.203C344.287 374.693 344 374.001 344 373.28V346.72C344 345.999 343.713 345.307 343.203 344.797C342.693 344.287 342.001 344 341.28 344H170.72C169.999 344 169.307 344.287 168.797 344.797C168.287 345.307 168 345.999 168 346.72V373.28C168 374.001 167.713 374.693 167.203 375.203C166.693 375.713 166.001 376 165.28 376H66.72C66.3628 376 66.0091 375.93 65.6791 375.793C65.3491 375.656 65.0492 375.456 64.7967 375.203C64.5441 374.951 64.3437 374.651 64.207 374.321C64.0704 373.991 64 373.637 64 373.28V136ZM328 362.72V373.28C328 374.001 327.713 374.693 327.203 375.203C326.693 375.713 326.001 376 325.28 376H186.72C185.999 376 185.307 375.713 184.797 375.203C184.287 374.693 184 374.001 184 373.28V362.72C184 361.999 184.287 361.307 184.797 360.797C185.307 360.287 185.999 360 186.72 360H325.28C326.001 360 326.693 360.287 327.203 360.797C327.713 361.307 328 361.999 328 362.72V362.72ZM64 394.72C64 393.999 64.2866 393.307 64.7967 392.797C65.3068 392.287 65.9986 392 66.72 392H445.28C446.001 392 446.693 392.287 447.203 392.797C447.713 393.307 448 393.999 448 394.72V397.28C448 398.001 447.713 398.693 447.203 399.203C446.693 399.713 446.001 400 445.28 400H66.72C66.3628 400 66.0091 399.93 65.6791 399.793C65.3491 399.656 65.0492 399.456 64.7967 399.203C64.5441 398.951 64.3437 398.651 64.207 398.321C64.0704 397.991 64 397.637 64 397.28V394.72ZM16 18.72C16 18.3628 16.0704 18.0091 16.207 17.6791C16.3437 17.3491 16.5441 17.0492 16.7967 16.7967C17.0492 16.5441 17.3491 16.3437 17.6791 16.2071C18.0091 16.0704 18.3628 16 18.72 16H45.28C46.0014 16 46.6932 16.2866 47.2033 16.7967C47.7134 17.3068 48 17.9986 48 18.72V125.28C48 126.001 47.7134 126.693 47.2033 127.203C46.6932 127.713 46.0014 128 45.28 128H18.72C17.9986 128 17.3068 127.713 16.7967 127.203C16.2866 126.693 16 126.001 16 125.28V18.72ZM48 146.72V397.28C48 398.001 47.7134 398.693 47.2033 399.203C46.6932 399.713 46.0014 400 45.28 400H34.72C33.9986 400 33.3068 399.713 32.7967 399.203C32.2866 398.693 32 398.001 32 397.28V146.72C32 145.999 32.2866 145.307 32.7967 144.797C33.3068 144.287 33.9986 144 34.72 144H45.28C46.0014 144 46.6932 144.287 47.2033 144.797C47.7134 145.307 48 145.999 48 146.72V146.72ZM496 461.28C496 462.001 495.713 462.693 495.203 463.203C494.693 463.713 494.001 464 493.28 464H18.72C17.9986 464 17.3068 463.713 16.7967 463.203C16.2866 462.693 16 462.001 16 461.28V418.72C16 417.999 16.2866 417.307 16.7967 416.797C17.3068 416.287 17.9986 416 18.72 416H493.28C494.001 416 494.693 416.287 495.203 416.797C495.713 417.307 496 417.999 496 418.72V461.28ZM493.29 128H466.72C466.363 128 466.009 127.93 465.679 127.793C465.349 127.656 465.049 127.456 464.797 127.203C464.544 126.951 464.344 126.651 464.207 126.321C464.07 125.991 464 125.637 464 125.28V18.72C464 18.3628 464.07 18.0091 464.207 17.6791C464.344 17.3491 464.544 17.0492 464.797 16.7967C465.049 16.5441 465.349 16.3437 465.679 16.2071C466.009 16.0704 466.363 16 466.72 16H493.28C494.001 16 494.693 16.2866 495.203 16.7967C495.713 17.3068 496 17.9986 496 18.72V125.28C496 126 495.715 126.69 495.207 127.2C494.699 127.71 494.01 127.997 493.29 128Z" fill="#E6E6EA"/>
    <path d="M290.72 112H317.28C318.001 112 318.693 112.287 319.203 112.797C319.713 113.307 320 113.999 320 114.72V173.28C320 173.637 320.07 173.991 320.207 174.321C320.344 174.651 320.544 174.951 320.797 175.203C321.049 175.456 321.349 175.656 321.679 175.793C322.009 175.93 322.363 176 322.72 176H341.28C342.001 176 342.693 176.287 343.203 176.797C343.713 177.307 344 177.999 344 178.72V189.28C344 189.637 344.07 189.991 344.207 190.321C344.344 190.651 344.544 190.951 344.797 191.203C345.049 191.456 345.349 191.656 345.679 191.793C346.009 191.93 346.363 192 346.72 192H357.28C358.001 192 358.693 191.713 359.203 191.203C359.713 190.693 360 190.001 360 189.28V178.72C360 177.999 360.287 177.307 360.797 176.797C361.307 176.287 361.999 176 362.72 176H381.28C382.001 176 382.693 175.713 383.203 175.203C383.713 174.693 384 174.001 384 173.28V114.72C384 114.363 384.07 114.009 384.207 113.679C384.344 113.349 384.544 113.049 384.797 112.797C385.049 112.544 385.349 112.344 385.679 112.207C386.009 112.07 386.363 112 386.72 112H413.28C414.001 112 414.693 111.713 415.203 111.203C415.713 110.693 416 110.001 416 109.28V42.72C416 42.3628 415.93 42.0091 415.793 41.6791C415.656 41.3491 415.456 41.0492 415.203 40.7967C414.951 40.5441 414.651 40.3437 414.321 40.207C413.991 40.0704 413.637 40 413.28 40H290.72C290.363 40 290.009 40.0704 289.679 40.207C289.349 40.3437 289.049 40.5441 288.797 40.7967C288.544 41.0492 288.344 41.3491 288.207 41.6791C288.07 42.0091 288 42.3628 288 42.72V109.28C288 109.637 288.07 109.991 288.207 110.321C288.344 110.651 288.544 110.951 288.797 111.203C289.049 111.456 289.349 111.656 289.679 111.793C290.009 111.93 290.363 112 290.72 112V112ZM365.29 160H338.72C337.999 160 337.307 159.713 336.797 159.203C336.287 158.693 336 158.001 336 157.28V114.72C336 113.999 336.287 113.307 336.797 112.797C337.307 112.287 337.999 112 338.72 112H365.28C365.637 112 365.991 112.07 366.321 112.207C366.651 112.344 366.951 112.544 367.203 112.797C367.456 113.049 367.656 113.349 367.793 113.679C367.93 114.009 368 114.363 368 114.72V157.28C368 158 367.715 158.69 367.207 159.2C366.699 159.71 366.01 159.997 365.29 160ZM304 58.72C304 58.3628 304.07 58.0091 304.207 57.6791C304.344 57.3491 304.544 57.0492 304.797 56.7967C305.049 56.5441 305.349 56.3437 305.679 56.207C306.009 56.0704 306.363 56 306.72 56H397.28C398.001 56 398.693 56.2866 399.203 56.7967C399.713 57.3068 400 57.9986 400 58.72V93.28C400 94.0014 399.713 94.6932 399.203 95.2033C398.693 95.7134 398.001 96 397.28 96H306.72C306.363 96 306.009 95.9296 305.679 95.793C305.349 95.6563 305.049 95.4559 304.797 95.2033C304.544 94.9508 304.344 94.6509 304.207 94.3209C304.07 93.9909 304 93.6372 304 93.28V58.72Z" fill="#E6E6EA"/>
    <path d="M188.41 303.16L252.41 335.16C252.53 335.22 252.66 335.16 252.78 335.25C253.791 335.717 254.887 335.973 256 336C257.112 335.975 258.205 335.716 259.21 335.24C259.33 335.18 259.46 335.24 259.58 335.15L323.58 303.15C324.617 302.629 325.527 301.889 326.249 300.981C326.971 300.073 327.487 299.019 327.761 297.891C328.035 296.764 328.061 295.591 327.836 294.452C327.611 293.314 327.142 292.239 326.46 291.3L262.46 203.3C261.96 202.62 261.36 202.02 260.68 201.52C260.082 201.1 259.429 200.764 258.74 200.52C258.647 200.464 258.55 200.414 258.45 200.37H258.32C257.57 200.128 256.788 200.003 256 200C255.274 200.013 254.554 200.127 253.86 200.34C253.75 200.34 253.63 200.34 253.52 200.34C252.782 200.725 252.042 201.105 251.3 201.48C250.614 201.981 250.011 202.584 249.51 203.27L185.51 291.27C184.827 292.209 184.356 293.287 184.131 294.426C183.906 295.566 183.932 296.741 184.207 297.87C184.482 298.998 185 300.053 185.724 300.962C186.448 301.87 187.361 302.61 188.4 303.13L188.41 303.16ZM264 241C264 240.426 264.182 239.866 264.519 239.401C264.857 238.936 265.333 238.59 265.879 238.413C266.425 238.235 267.013 238.235 267.56 238.412C268.106 238.59 268.582 238.935 268.92 239.4L306.09 290.5C306.316 290.82 306.47 291.184 306.542 291.569C306.614 291.954 306.602 292.35 306.507 292.729C306.412 293.109 306.237 293.464 305.992 293.769C305.747 294.075 305.44 294.324 305.09 294.5L267.93 313.08C267.515 313.288 267.053 313.387 266.589 313.366C266.124 313.345 265.673 313.206 265.278 312.961C264.883 312.717 264.557 312.375 264.332 311.969C264.106 311.562 263.988 311.105 263.99 310.64L264 241ZM205.91 290.5L243.08 239.4C243.418 238.935 243.894 238.59 244.44 238.412C244.987 238.235 245.575 238.235 246.121 238.413C246.667 238.59 247.143 238.936 247.481 239.401C247.818 239.866 248 240.426 248 241V310.68C248.002 311.145 247.884 311.602 247.659 312.009C247.433 312.415 247.107 312.757 246.712 313.001C246.317 313.246 245.866 313.385 245.402 313.406C244.937 313.427 244.475 313.328 244.06 313.12L206.9 294.51C206.545 294.334 206.233 294.083 205.985 293.774C205.737 293.464 205.56 293.105 205.466 292.72C205.371 292.335 205.362 291.935 205.439 291.546C205.516 291.157 205.677 290.79 205.91 290.47V290.5Z" fill="#E6E6EA"/>
</svg>
