<svg xmlns="http://www.w3.org/2000/svg" viewBox="0 0 507.12 507.11"><defs><style>.cls-1{fill:#161e3d;}.cls-2{fill:#d0333c;}</style></defs><title>icon-documentation-3</title><g id="Слой_2" data-name="Слой 2"><g id="Слой_1-2" data-name="Слой 1"><path class="cls-1" d="M507,231.78v-.05a8.25,8.25,0,0,0-.46-2.28l-.12-.37a3.71,3.71,0,0,0-.16-.47,8.15,8.15,0,0,0-1.64-2.43l-61.37-61.39V104.64a2.66,2.66,0,0,1-.13-.65,9.5,9.5,0,0,0-.45-2.28l-.1-.3a4.43,4.43,0,0,0-.17-.47,8.5,8.5,0,0,0-1.7-2.57L344.85,2.53A8.69,8.69,0,0,0,342.29.84a5.72,5.72,0,0,0-.59-.21l-.14-.05a9.26,9.26,0,0,0-2.34-.47,2.88,2.88,0,0,1-.64-.11h-266a8.66,8.66,0,0,0-8.65,8.65V164.79L2.54,226.15a8.34,8.34,0,0,0-1.67,2.48c-.06.14-.11.3-.16.46l-.11.34a8.18,8.18,0,0,0-.46,2.28,3.11,3.11,0,0,1-.14.72V434.58a8.66,8.66,0,0,0,8.65,8.64H63.89v55.25a8.66,8.66,0,0,0,8.65,8.64h362a8.66,8.66,0,0,0,8.65-8.64V443.22h55.24a8.66,8.66,0,0,0,8.65-8.64V232.43A2.66,2.66,0,0,1,507,231.78Zm-63.76-42.53,34.36,34.36H443.23ZM347.39,29.52,413.7,95.83H347.39ZM81.19,17.3H330.1v87.18a8.66,8.66,0,0,0,8.64,8.65h87.19V223.61H81.19Zm-17.3,172v34.36H29.53Zm362,300.57H81.19v-46.6H425.93Zm63.89-63.89H17.3v-185H489.82Z"/><path class="cls-2" d="M40,372.81l15-16.18c6.6,8.22,14.4,12.67,22,12.67,11.74,0,17.77-5.13,17.77-20.93V296.19H49.73v-21.9H121V350.5c0,22.63-11.15,41.36-43.08,41.36C65.09,391.86,50.05,386.86,40,372.81Z"/><path class="cls-2" d="M157.84,274.34h40.94c25,0,45.2,9.06,45.2,37.11,0,27.17-20.73,39.14-45.2,39.14H184v39.14H157.84Zm39.42,55.52c14.31,0,21.11-6.41,21.11-18.41s-7.36-16.39-21.11-16.39H184v34.8Z"/><path class="cls-2" d="M276.09,274.34h76.49v21.89H302.2v23.15H345v21.9H302.2v26.55h52.15v21.9H276.09Z"/><path class="cls-2" d="M382.56,332.67c0-38.56,23.47-60.46,53.44-60.46,15.54,0,26.4,7.13,33.71,14.68L455.34,303c-5-4.94-10.23-8.27-19.34-8.27-15.13,0-26.49,13.92-26.49,37,0,23.72,9.35,37.49,27.54,37.49,4.32,0,8.74-1.2,11.2-3.41V346H431.49V324.67h40.15v53.22c-7.64,7.18-21.31,14-36.11,14C406.06,391.86,382.56,371.59,382.56,332.67Z"/></g></g></svg>