<svg xmlns="http://www.w3.org/2000/svg" viewBox="0 0 507.12 507.11"><defs><style>.cls-1{fill:#161e3d;}.cls-2{fill:#d0333c;}</style></defs><title>icon-documentation-2</title><g id="Слой_2" data-name="Слой 2"><g id="Слой_1-2" data-name="Слой 1"><path class="cls-1" d="M507,231.78v-.05a8.54,8.54,0,0,0-.45-2.28l-.13-.37a2.6,2.6,0,0,0-.16-.47,8,8,0,0,0-1.64-2.43l-61.37-61.39V104.64a3.23,3.23,0,0,1-.13-.65,9,9,0,0,0-.45-2.28l-.1-.31a4,4,0,0,0-.16-.45,8.44,8.44,0,0,0-1.71-2.58L344.85,2.53A8.7,8.7,0,0,0,342.3.84a5,5,0,0,0-.55-.19l-.21-.07a9,9,0,0,0-2.31-.47,2.88,2.88,0,0,1-.64-.11h-266a8.66,8.66,0,0,0-8.65,8.65V164.79L2.54,226.15a8.34,8.34,0,0,0-1.67,2.48,4,4,0,0,0-.15.45l-.12.36a8,8,0,0,0-.46,2.27,3.11,3.11,0,0,1-.14.72V434.58a8.66,8.66,0,0,0,8.65,8.64H63.89v55.25a8.66,8.66,0,0,0,8.65,8.64h362a8.66,8.66,0,0,0,8.65-8.64V443.22h55.24a8.66,8.66,0,0,0,8.65-8.64V232.43A3.23,3.23,0,0,1,507,231.78Zm-63.76-42.53,34.36,34.36H443.23ZM347.4,29.52l66.3,66.31H347.4ZM81.19,17.3H330.1v87.18a8.66,8.66,0,0,0,8.65,8.65h87.18V223.61H81.19Zm-17.3,172v34.36H29.53Zm362,300.57H81.19v-46.6H425.93Zm63.89-63.89H17.3v-185H489.82Z"/><path class="cls-2" d="M99.28,270.44h40.94c25,0,45.2,9.06,45.2,37.11,0,27.17-20.72,39.14-45.2,39.14H125.4v39.14H99.28ZM138.71,326c14.31,0,21.11-6.41,21.11-18.41s-7.36-16.38-21.11-16.38H125.4V326Z"/><path class="cls-2" d="M213.64,270.44h31.88C279,270.44,301,288,301,327.6s-22,58.23-54,58.23H213.64Zm30.44,94.36c17.95,0,30.16-9.59,30.16-37.2S262,291.47,244.08,291.47h-4.32V364.8Z"/><path class="cls-2" d="M334.85,270.44h76.72v21.9H361v26.74h43.22V341H361v44.85H334.85Z"/></g></g></svg>