<svg width="477" height="477" viewBox="0 0 477 477" fill="none" xmlns="http://www.w3.org/2000/svg">
    <g clip-path="url(#clip0)">
        <path d="M473.68 0H140.77C140.102 0 139.461 0.265499 138.988 0.738091C138.516 1.21068 138.25 1.85165 138.25 2.52V289.34C138.247 289.677 138.178 290.01 138.045 290.32C137.913 290.63 137.72 290.91 137.478 291.145C137.236 291.379 136.95 291.563 136.636 291.686C136.322 291.809 135.987 291.868 135.65 291.86C115.762 291.821 96.3646 298.034 80.2 309.62L65.43 320.17C65.0542 320.447 64.6085 320.614 64.143 320.652C63.6775 320.69 63.2107 320.597 62.795 320.384C62.3794 320.171 62.0315 319.846 61.7903 319.446C61.5492 319.046 61.4244 318.587 61.43 318.12V309.75C61.43 309.418 61.3645 309.09 61.2372 308.783C61.11 308.477 60.9234 308.199 60.6884 307.965C60.4533 307.73 60.1743 307.545 59.8674 307.419C59.5605 307.293 59.2318 307.229 58.9 307.23H2.52C1.85165 307.23 1.21068 307.495 0.738091 307.968C0.265499 308.441 0 309.082 0 309.75L0 473.68C0 474.348 0.265499 474.989 0.738091 475.462C1.21068 475.935 1.85165 476.2 2.52 476.2H58.92C59.2518 476.201 59.5805 476.137 59.8874 476.011C60.1943 475.885 60.4733 475.7 60.7084 475.465C60.9434 475.231 61.13 474.953 61.2572 474.647C61.3845 474.34 61.45 474.012 61.45 473.68V458.4C61.4523 458.012 61.5437 457.63 61.7171 457.284C61.8904 456.937 62.1412 456.634 62.45 456.4L91.92 435.4C103.629 426.996 117.687 422.49 132.1 422.52H283.08C294.179 422.551 305.173 420.38 315.428 416.133C325.682 411.887 334.992 405.648 342.82 397.78L389.18 351.42C390.594 349.995 391.873 348.441 393 346.78C393.231 346.451 393.538 346.183 393.895 345.998C394.252 345.814 394.648 345.718 395.05 345.72H473.68C474.348 345.72 474.989 345.454 475.462 344.982C475.935 344.509 476.2 343.868 476.2 343.2V2.52C476.2 1.85165 475.935 1.21068 475.462 0.738091C474.989 0.265499 474.348 0 473.68 0V0ZM458.31 61.45H363.51C363.179 61.4487 362.852 61.3822 362.546 61.2544C362.241 61.1265 361.964 60.9398 361.731 60.7048C361.498 60.4699 361.313 60.1914 361.188 59.8851C361.063 59.5789 360.999 59.2509 361 58.92V17.92C361 17.2517 361.266 16.6107 361.738 16.1381C362.211 15.6655 362.852 15.4 363.52 15.4H458.32C458.652 15.3987 458.981 15.4629 459.287 15.5889C459.594 15.715 459.873 15.9004 460.108 16.1345C460.343 16.3687 460.53 16.6469 460.657 16.9533C460.784 17.2597 460.85 17.5882 460.85 17.92V58.92C460.85 59.2531 460.784 59.5829 460.656 59.8905C460.529 60.1981 460.341 60.4775 460.105 60.7125C459.869 60.9476 459.589 61.1337 459.281 61.2603C458.973 61.3868 458.643 61.4513 458.31 61.45ZM271.31 76.81H343.08C343.748 76.81 344.389 77.0755 344.862 77.5481C345.334 78.0207 345.6 78.6617 345.6 79.33V115.48C345.607 115.958 345.478 116.429 345.227 116.837C344.977 117.244 344.615 117.572 344.185 117.782C343.755 117.992 343.274 118.075 342.799 118.021C342.323 117.968 341.873 117.78 341.5 117.48L328 106.64C327.551 106.281 326.994 106.086 326.42 106.086C325.846 106.086 325.289 106.281 324.84 106.64L308.84 119.48C308.394 119.84 307.838 120.036 307.265 120.036C306.692 120.036 306.136 119.84 305.69 119.48L289.62 106.64C289.174 106.28 288.618 106.084 288.045 106.084C287.472 106.084 286.916 106.28 286.47 106.64L272.93 117.47C272.556 117.766 272.106 117.95 271.632 118.001C271.158 118.053 270.679 117.969 270.251 117.76C269.822 117.551 269.461 117.225 269.21 116.82C268.959 116.415 268.827 115.947 268.83 115.47V79.33C268.83 78.6634 269.094 78.0239 269.565 77.5516C270.035 77.0793 270.673 76.8126 271.34 76.81H271.31ZM268.79 58.92V17.92C268.79 17.2517 269.055 16.6107 269.528 16.1381C270.001 15.6655 270.642 15.4 271.31 15.4H343.08C343.748 15.4 344.389 15.6655 344.862 16.1381C345.334 16.6107 345.6 17.2517 345.6 17.92V58.92C345.601 59.2518 345.537 59.5805 345.411 59.8874C345.285 60.1943 345.1 60.4733 344.865 60.7084C344.631 60.9434 344.353 61.13 344.047 61.2572C343.74 61.3845 343.412 61.45 343.08 61.45H271.34C271.008 61.45 270.68 61.3845 270.373 61.2572C270.067 61.13 269.789 60.9434 269.555 60.7084C269.32 60.4733 269.135 60.1943 269.009 59.8874C268.883 59.5805 268.819 59.2518 268.82 58.92H268.79ZM253.43 17.92V58.92C253.431 59.2518 253.367 59.5805 253.241 59.8874C253.115 60.1943 252.93 60.4733 252.695 60.7084C252.461 60.9434 252.183 61.13 251.877 61.2572C251.57 61.3845 251.242 61.45 250.91 61.45H156.11C155.439 61.45 154.795 61.1834 154.321 60.709C153.847 60.2345 153.58 59.591 153.58 58.92V17.92C153.58 17.5882 153.646 17.2597 153.773 16.9533C153.9 16.6469 154.087 16.3687 154.322 16.1345C154.557 15.9004 154.836 15.715 155.143 15.5889C155.449 15.4629 155.778 15.3987 156.11 15.4H250.91C251.577 15.392 252.219 15.6485 252.697 16.1133C253.175 16.5781 253.449 17.2134 253.46 17.88L253.43 17.92ZM43.53 460.92H17.88C17.5482 460.92 17.2197 460.855 16.9133 460.727C16.6069 460.6 16.3287 460.413 16.0945 460.178C15.8604 459.943 15.675 459.664 15.5489 459.357C15.4229 459.051 15.3587 458.722 15.36 458.39V325.11C15.36 324.442 15.6255 323.801 16.0981 323.328C16.5707 322.856 17.2117 322.59 17.88 322.59H43.56C44.2283 322.59 44.8693 322.856 45.3419 323.328C45.8145 323.801 46.08 324.442 46.08 325.11V458.31C46.0813 458.642 46.0171 458.971 45.8911 459.277C45.765 459.584 45.5796 459.863 45.3455 460.098C45.1113 460.333 44.8331 460.52 44.5267 460.647C44.2203 460.774 43.8918 460.84 43.56 460.84L43.53 460.92ZM331.94 386.92C325.535 393.357 317.917 398.46 309.527 401.935C301.137 405.409 292.141 407.185 283.06 407.16H132.15C114.531 407.093 97.3366 412.568 83 422.81L65.43 435.38C65.0542 435.657 64.6085 435.824 64.143 435.862C63.6775 435.9 63.2107 435.807 62.795 435.594C62.3794 435.381 62.0315 435.056 61.7903 434.656C61.5492 434.256 61.4244 433.797 61.43 433.33V343.19C61.4245 342.794 61.5122 342.402 61.6859 342.046C61.8596 341.69 62.1145 341.38 62.43 341.14L89.06 322.14C100.27 314.216 113.317 309.282 126.965 307.805C140.614 306.328 154.414 308.357 167.06 313.7L187.74 322.57C199.607 327.676 212.391 330.303 225.31 330.29H267.42C268.045 330.285 268.649 330.517 269.11 330.94C283.63 344.31 274.27 361.01 261.11 361.01H133.11C132.442 361.01 131.801 361.275 131.328 361.748C130.856 362.221 130.59 362.862 130.59 363.53V373.85C130.59 374.181 130.655 374.509 130.782 374.814C130.908 375.12 131.094 375.398 131.328 375.632C131.562 375.866 131.84 376.052 132.146 376.178C132.451 376.305 132.779 376.37 133.11 376.37H261.11C268.854 376.371 276.313 373.449 281.997 368.19C287.68 362.931 291.171 355.721 291.77 348C291.818 347.363 292.104 346.768 292.571 346.332C293.038 345.897 293.651 345.653 294.29 345.65H367.08C367.58 345.649 368.069 345.796 368.485 346.074C368.901 346.351 369.225 346.746 369.415 347.208C369.606 347.67 369.655 348.179 369.556 348.669C369.458 349.159 369.215 349.608 368.86 349.96L331.94 386.92ZM343.08 330.36H289.05C288.622 330.365 288.2 330.262 287.823 330.061C287.446 329.86 287.125 329.567 286.89 329.21C283.064 323.243 277.291 318.783 270.55 316.59C270.046 316.425 269.608 316.105 269.297 315.676C268.986 315.247 268.819 314.73 268.82 314.2V284C268.817 283.523 268.949 283.055 269.2 282.65C269.451 282.245 269.812 281.919 270.241 281.71C270.669 281.501 271.148 281.417 271.622 281.469C272.096 281.52 272.546 281.704 272.92 282L286.42 292.82C286.869 293.179 287.426 293.374 288 293.374C288.574 293.374 289.131 293.179 289.58 292.82L305.58 279.97C306.028 279.616 306.583 279.423 307.155 279.423C307.727 279.423 308.282 279.616 308.73 279.97L324.8 292.81C325.246 293.17 325.802 293.366 326.375 293.366C326.948 293.366 327.504 293.17 327.95 292.81L341.49 281.99C341.863 281.69 342.313 281.502 342.789 281.449C343.264 281.395 343.745 281.478 344.175 281.688C344.605 281.898 344.967 282.226 345.217 282.633C345.468 283.041 345.597 283.512 345.59 283.99V327.83C345.57 328.478 345.3 329.092 344.839 329.547C344.377 330.001 343.758 330.26 343.11 330.27L343.08 330.36ZM361 327.74V263.66C361 262.992 360.734 262.351 360.262 261.878C359.789 261.405 359.148 261.14 358.48 261.14H343.82C343.247 261.142 342.691 261.336 342.24 261.69L328 273.09C327.554 273.45 326.998 273.646 326.425 273.646C325.852 273.646 325.296 273.45 324.85 273.09L308.78 260.25C308.332 259.896 307.777 259.703 307.205 259.703C306.633 259.703 306.078 259.896 305.63 260.25L289.63 273.08C289.181 273.439 288.624 273.634 288.05 273.634C287.476 273.634 286.919 273.439 286.47 273.08L272.27 261.7C271.822 261.34 271.265 261.143 270.69 261.14H256C255.332 261.14 254.691 261.405 254.218 261.878C253.746 262.351 253.48 262.992 253.48 263.66V312.38C253.481 312.712 253.417 313.041 253.291 313.347C253.165 313.654 252.98 313.933 252.745 314.168C252.511 314.403 252.233 314.59 251.927 314.717C251.62 314.844 251.292 314.91 250.96 314.91H225.37C214.536 314.922 203.813 312.72 193.86 308.44L173.18 299.57C167.525 297.148 161.647 295.283 155.63 294C155.065 293.879 154.558 293.568 154.194 293.118C153.83 292.669 153.631 292.108 153.63 291.53V79.33C153.63 78.9982 153.696 78.6697 153.823 78.3633C153.95 78.0569 154.137 77.7787 154.372 77.5445C154.607 77.3104 154.886 77.125 155.193 76.9989C155.499 76.8729 155.828 76.8087 156.16 76.81H250.96C251.628 76.81 252.269 77.0755 252.742 77.5481C253.215 78.0207 253.48 78.6617 253.48 79.33V135.73C253.48 136.398 253.746 137.039 254.218 137.512C254.691 137.984 255.332 138.25 256 138.25H270.65C271.224 138.253 271.782 138.059 272.23 137.7L286.48 126.3C286.926 125.94 287.482 125.744 288.055 125.744C288.628 125.744 289.184 125.94 289.63 126.3L305.7 139.14C306.146 139.5 306.702 139.696 307.275 139.696C307.848 139.696 308.404 139.5 308.85 139.14L324.85 126.31C325.299 125.951 325.856 125.756 326.43 125.756C327.004 125.756 327.561 125.951 328.01 126.31L342.21 137.7C342.659 138.057 343.216 138.251 343.79 138.25H358.45C359.118 138.25 359.759 137.984 360.232 137.512C360.704 137.039 360.97 136.398 360.97 135.73V79.33C360.97 78.6617 361.236 78.0207 361.708 77.5481C362.181 77.0755 362.822 76.81 363.49 76.81H458.29C458.622 76.8087 458.951 76.8729 459.257 76.9989C459.564 77.125 459.843 77.3104 460.078 77.5445C460.313 77.7787 460.5 78.0569 460.627 78.3633C460.754 78.6697 460.82 78.9982 460.82 79.33V327.74C460.82 328.411 460.553 329.055 460.079 329.529C459.605 330.003 458.961 330.27 458.29 330.27H363.49C362.825 330.262 362.19 329.992 361.724 329.518C361.258 329.044 360.997 328.405 361 327.74V327.74Z" fill="#E6E6EA"/>
        <path d="M325.11 245.78H443C443.332 245.781 443.66 245.717 443.967 245.591C444.274 245.465 444.553 245.28 444.788 245.045C445.023 244.811 445.21 244.533 445.337 244.227C445.464 243.92 445.53 243.592 445.53 243.26V171.5C445.522 170.834 445.252 170.198 444.778 169.73C444.305 169.262 443.666 169 443 169H325.11C324.778 169 324.45 169.066 324.143 169.193C323.837 169.32 323.559 169.507 323.324 169.742C323.09 169.977 322.905 170.256 322.779 170.563C322.653 170.869 322.589 171.198 322.59 171.53V243.29C322.598 243.953 322.867 244.586 323.338 245.053C323.81 245.519 324.447 245.78 325.11 245.78V245.78ZM340.47 184.34H427.59C427.922 184.339 428.25 184.403 428.557 184.529C428.864 184.655 429.143 184.84 429.378 185.075C429.613 185.309 429.8 185.587 429.927 185.893C430.054 186.2 430.12 186.528 430.12 186.86V227.86C430.12 228.192 430.054 228.52 429.927 228.827C429.8 229.133 429.613 229.411 429.378 229.645C429.143 229.88 428.864 230.065 428.557 230.191C428.25 230.317 427.922 230.381 427.59 230.38H340.47C339.817 230.367 339.195 230.101 338.734 229.639C338.273 229.176 338.01 228.553 338 227.9V186.9C337.989 186.233 338.243 185.59 338.706 185.11C339.169 184.63 339.803 184.353 340.47 184.34V184.34Z" fill="#E6E6EA"/>
    </g>
    <defs>
        <clipPath id="clip0">
            <rect width="476.2" height="476.2" fill="white"/>
        </clipPath>
    </defs>
</svg>
