<svg xmlns="http://www.w3.org/2000/svg" viewBox="0 0 511.9 511.1"><defs><style>.cls-1{fill:#161e3d;}.cls-2{fill:#d0333c;}</style></defs><title>6icon-features-1.svg</title><g id="Слой_2" data-name="Слой 2"><g id="Слой_1-2" data-name="Слой 1"><path class="cls-1" d="M511.1,251.3c-.9-50.3-16.2-99.7-45.2-140.6A253.59,253.59,0,0,0,264.1,0H221.5a17,17,0,0,0-17,17V57.9c-18.7,5.1-36.6,11.9-52.8,22.2l-28.1-29A16.87,16.87,0,0,0,111.7,46c-4.3,0-9.4,1.7-11.9,5.1L51.1,98.8a16.43,16.43,0,0,0,0,23.8l29,29c-10.2,16.2-17,34.1-22.2,52.8H17a17,17,0,0,0-17,17v68.2a17,17,0,0,0,17,17H57.9a169.46,169.46,0,0,0,22.2,52.8l-29,28.1a16.43,16.43,0,0,0,0,23.8l47.7,47.8a16.43,16.43,0,0,0,23.8,0l29-29a191.79,191.79,0,0,0,52.8,21.3v42.7a17,17,0,0,0,17,17H264a243.27,243.27,0,0,0,87.7-18.7c46-18.7,86-51.1,115-92,29.8-42.6,45.2-92.9,45.2-144.8A10.29,10.29,0,0,1,511.1,251.3Zm-264,74.9L187.5,293V218l59.6-26.4Zm0-153.3-71.6,31.5a9.35,9.35,0,0,0-5.1,8.5v85.2a9,9,0,0,0,4.3,7.7l72.4,40v37.5c-67.3-4.3-119.3-60.5-119.3-127.8A126.91,126.91,0,0,1,247.1,128.6Zm0-61.3c-76.7,4.3-136.3,68.2-136.3,144,0,73.08,54.11,133.72,125.56,143.7q5.31.74,10.74,1.1v93.7H221.5V446.4a8.25,8.25,0,0,0-6.8-8.5,168.26,168.26,0,0,1-59.6-24.7c-3.4-2.6-7.7-1.7-11.1.9l-33.3,34L63,400.4l33.3-33.3a7.75,7.75,0,0,0,.9-10.2c-11.9-18.7-19.6-38.3-24.7-59.6-.9-5.1-4.3-7.7-7.7-7.7H17V221.4H64.7a8.25,8.25,0,0,0,8.5-6.8A168.26,168.26,0,0,1,97.9,155a7.63,7.63,0,0,0-.9-10.2L63,110.7,110.7,63,144,96.2c2.6,2.6,6.8,3.4,11.1.9a168.26,168.26,0,0,1,59.6-24.7,8.1,8.1,0,0,0,6.8-7.7V17h25.6ZM493.3,242.7H391.9a469.77,469.77,0,0,0-12.8-98c26.4-3.4,52-10.2,76.7-18.7A228.49,228.49,0,0,1,493.3,242.7ZM445.6,111.6c-23,7.7-47.7,12.8-71.6,17-14.5-46-34.9-81.8-59.6-103.1C366.3,37.4,412.3,68.1,445.6,111.6ZM264.1,17.8c37.5,5.1,72.4,47.7,92.9,112.5-30.7,3.4-62.2,6-92.9,6Zm0,135.5c32.4,0,64.7-2.6,97.1-6.8,7.7,31.5,12.8,63.9,12.8,96.3H264.1Zm0,106.5H374.8a400.93,400.93,0,0,1-13.6,104.8,737.07,737.07,0,0,0-97.1-6.8Zm0,233.4V374.8c30.7,0,62.2,2.6,92.9,6C336.5,446.4,301.6,488.1,264.1,493.2Zm127.8-42.6c-29.8,21.3-58.8,30.7-78.4,35.8,12.8-13.6,29-33.2,41.7-58.8a69.9,69.9,0,0,1,6-11.9.88.88,0,0,1,.9-.9,324.06,324.06,0,0,0,11.1-31.5c6,.9,11.9,1.7,17.9,2.6s11.9,2.6,17.9,3.4c13.5,3.4,25.5,6.8,36.6,10.2A240.51,240.51,0,0,1,391.9,450.6ZM455.8,385c-24.7-8.5-51.1-14.5-76.7-18.7A498,498,0,0,0,392.7,259H495A252.84,252.84,0,0,1,455.8,385Z"/><path class="cls-2" d="M187.5,218v75l59.6,33.2v19.6l-72.4-40a9,9,0,0,1-4.3-7.7V212.9a9.35,9.35,0,0,1,5.1-8.5l71.6-31.5v18.7Z"/><path class="cls-2" d="M247.1,111.6v17A126.91,126.91,0,0,0,127.8,255.5c0,67.3,52,123.5,119.3,127.8v16H236.36c-71.45-10-125.56-70.62-125.56-143.7C110.8,179.8,170.4,115.9,247.1,111.6Z"/></g></g></svg>