<svg xmlns="http://www.w3.org/2000/svg" viewBox="0 0 547.05 510.34"><defs><style>.cls-1{fill:#161e3d;}.cls-2{fill:none;}.cls-3{fill:#d0333c;}</style></defs><title>6icon-features-4.svg</title><g id="Слой_2" data-name="Слой 2"><g id="Слой_1-2" data-name="Слой 1"><path class="cls-1" d="M519.93,246.4h-.38V45.22A45.26,45.26,0,0,0,474.33,0H72.63A45.26,45.26,0,0,0,27.41,45.22V182.5H27a27.06,27.06,0,0,0-27,27v273.8a27.06,27.06,0,0,0,27,27h200.8a27.06,27.06,0,0,0,27-27v-.38h76.87a27.1,27.1,0,0,0,26.14-34.12l-18-66.17,0-.11h52.77V483.32a27,27,0,0,0,27,27H520a27,27,0,0,0,27-27V273.42A27.22,27.22,0,0,0,519.93,246.4Zm-.1,17.44a9.49,9.49,0,0,1,9.47,9.48V292H410V273.32a9.5,9.5,0,0,1,9.48-9.48ZM17.55,209.42A9.5,9.5,0,0,1,27,199.94h200.8a9.49,9.49,0,0,1,9.47,9.48v18.67H17.55ZM237.41,483.69h-.11a9.49,9.49,0,0,1-9.47,9.11H27a9.5,9.5,0,0,1-9.48-9.48V464.65H237.41Zm0-36.5H17.55V245.65H237.41Zm103.48,6.23a9,9,0,0,1-1.67,8.24,9.32,9.32,0,0,1-7.59,3.74H254.75V446.34h84.16Zm-19.3-70.5L334.22,429H254.86V382.65h66.66Zm70.91-17.83H254.86V309.54H392.5Zm0-91.67v18.67H254.86V209.62a27.07,27.07,0,0,0-27-27h-183V45.22A27.81,27.81,0,0,1,72.63,17.44h401.6A27.81,27.81,0,0,1,502,45.22V246.4H419.53A27.06,27.06,0,0,0,392.5,273.42ZM410,309.54H529.41V447.19H410ZM529.5,483.69h-.1a9.49,9.49,0,0,1-9.47,9.11H419.53a9.5,9.5,0,0,1-9.48-9.48V464.65H529.5Z"/><line class="cls-2" x1="252.52" y1="170.34" x2="239.58" y2="157.4"/><rect class="cls-3" x="17.55" y="228.09" width="219.75" height="17.56"/><rect class="cls-3" x="17.55" y="447.19" width="219.75" height="17.46"/><polygon class="cls-3" points="254.86 309.54 254.86 365.09 392.5 365.09 392.5 382.65 254.75 382.65 254.75 256.22 254.86 256.22 254.86 292.09 392.5 292.09 392.5 309.54 254.86 309.54"/><rect class="cls-3" x="410.05" y="292" width="119.25" height="17.54"/><rect class="cls-3" x="410.05" y="447.19" width="119.25" height="17.46"/></g></g></svg>